<svg xmlns="http://www.w3.org/2000/svg" viewbox="0 0 48 48" version="1.1">
 <g id="layer1" transform="translate(0,-1004.3622)">
  <path id="path4778" style="fill:#ffffff;" d="m48,1023c0-0.9394-0.1382-0.5526-1.796-1.022-1.658-0.4421-6.714-1.99-14.48-0.829-6.466,0.9395-4.835,3.095-7.516,3.205h-0.4145c-2.653-0.1105-1.022-2.238-7.516-3.205-7.764-1.133-12.82,0.3869-14.48,0.829-1.658,0.4421-1.796,0.083-1.796,1.022,0,0.9395-0.0829,1.686,0.7184,1.686s0.8013,0,2.072,3.924c1.492,4.697,1.907,6.024,3.371,7.101,1.768,1.326,9.173,1.326,11.58-0.1106,3.012-1.796,2.597-8.566,6.217-8.676h0.1105c3.62,0.1105,3.205,6.88,6.217,8.676,2.404,1.437,9.809,1.437,11.58,0.1106,1.464-1.105,1.851-2.404,3.371-7.101,1.243-3.924,1.243-3.924,2.072-3.924,0.7737,0,0.6908-0.746,0.6908-1.686zm-28.63,6.908c-0.746,1.879-1.326,3.592-2.376,4.283-1.105,0.7461-2.735,0.8842-5.139,0.8566-2.017-0.028-4.2,0.028-5.112-0.8289-0.7737-0.7461-1.52-3.012-2.155-5.056-0.8842-2.791-1.326-4.476-0.3868-5.333,1.105-1.022,4.034-1.188,7.488-1.243s8.013,0.9671,8.621,2.321c0.4697,1.078-0.2487,3.316-0.9394,5.001zm24.07-0.746c-0.6631,2.045-1.409,4.31-2.155,5.056-0.9118,0.8842-3.095,0.8013-5.112,0.8289-2.404,0.028-4.034-0.1105-5.139-0.8566-1.05-0.6907-1.63-2.404-2.376-4.283-0.6908-1.713-1.409-3.951-0.9394-4.974,0.6079-1.354,5.167-2.376,8.621-2.321s6.383,0.221,7.488,1.243c0.9118,0.8289,0.4974,2.542-0.3868,5.305z"/>
 </g>
</svg>
