<svg xmlns="http://www.w3.org/2000/svg" viewbox="0 0 48 48" version="1.1">
 <g id="layer1" transform="translate(0,-1004.3622)">
  <g id="g4786" transform="matrix(0.43438914,0,0,0.43438914,-1332.098,-37.563591)">
   <path id="path4788" style="fill:#ffffff;" d="m3115,2415c-10.1,9.6,0.7,16.6,0.7,16.6-6.5-9.4,4.6-13.5,4.6-13.5s7.1-2.4,4.8-11.1c-2.1-7.8-12.2-8.3-12.2-8.3,2.8,2.5,12.2,6.7,2.1,16.3z"/>
   <path id="path4790" style="fill:#ffffff;" d="m3148,2452h-7.6v-8.6c0-3.5-2.9-6.4-6.5-6.4h-39.8c-3.6,0-6.5,2.9-6.5,6.4v59.6c0,3.5,2.9,6.4,6.5,6.4h39.8c3.6,0,6.5-2.9,6.5-6.4v-12.8h7.5c7,0,9-7,9-10.2v-19.2c0.1-7-5.8-8.8-8.9-8.8zm-5.3,30h-2.2v-20.4h2.2c5.1,0.1,5.6,1.7,5.6,5.6v8.1c0,6.1-2.3,6.7-5.6,6.7z"/>
  </g>
 </g>
</svg>
