<?xml version="1.0" encoding="UTF-8" standalone="no"?>
<!-- Generator: Adobe Illustrator 17.1.0, SVG Export Plug-In . SVG Version: 6.00 Build 0)  -->
<svg id="Layer_1" xmlns:rdf="http://www.w3.org/1999/02/22-rdf-syntax-ns#" xmlns="http://www.w3.org/2000/svg" enable-background="new 0 0 960 560" xml:space="preserve" viewBox="0 0 721.3 351.1" height="100%" width="100%" version="1.1" y="0px" x="0px" xmlns:cc="http://creativecommons.org/ns#" xmlns:dc="http://purl.org/dc/elements/1.1/"><metadata id="metadata15"><rdf:RDF><cc:Work rdf:about=""><dc:format>image/svg+xml</dc:format><dc:type rdf:resource="http://purl.org/dc/dcmitype/StillImage"/><dc:title/></cc:Work></rdf:RDF></metadata><g id="g3" transform="translate(-119.5,-102)"><path id="path5" style="fill:#333333;" d="M399,453v-131.3h-182v131.3h-97.5v-351h97.5v138.6h182v-138.6h97.1v351h-97.1z"/><path id="path7" style="fill:#333333;" d="m648.2,102c4.4,0-4.2,21.5-47,22.9-24.2,0.8-40-7.6-47.4-22.9h94.4zm-95.1,351v-284.4h95.9v284.4h-95.9z"/><path id="path9" style="fill:#333333;" d="m737.2,453.1c2.8-6.8,6.8-12.3,11.8-16.5s10.9-7.2,17.6-9.1,13.9-2.8,21.7-2.8c7.3,0,14.3,0.9,20.9,2.8s12.4,4.9,17.4,9.1,9,9.7,11.9,16.5h-101.3zm89.8-82.5h-76.7l-13.9-265.6h104.4l-13.8,265.6z"/></g></svg>
