<?xml version="1.0" encoding="UTF-8" standalone="no"?>
<svg id="svg2" xmlns:rdf="http://www.w3.org/1999/02/22-rdf-syntax-ns#" xmlns="http://www.w3.org/2000/svg" height="31.55" width="32" version="1.1" xmlns:cc="http://creativecommons.org/ns#" xmlns:dc="http://purl.org/dc/elements/1.1/" viewBox="0 0 32 31.553778">
 <metadata id="metadata10">
  <rdf:RDF>
   <cc:Work rdf:about="">
    <dc:format>image/svg+xml</dc:format>
    <dc:type rdf:resource="http://purl.org/dc/dcmitype/StillImage"/>
    <dc:title/>
   </cc:Work>
  </rdf:RDF>
 </metadata>
 <path id="path4" style="fill:#ffffff;" d="m7.246,3.42c0,1.89-1.396,3.42-3.691,3.42-2.159,0.001-3.555-1.53-3.555-3.42,0-1.934,1.442-3.42,3.646-3.42s3.556,1.486,3.6,3.42zm-7.065,28.13v-22.01h6.841v22.01h-6.841zm10.94-14.99c0-2.745-0.09067-5.04-0.1813-7.02h5.941l0.3164,3.061h0.128c0.902-1.44,3.102-3.551,6.792-3.551,4.5,0,7.88,3.011,7.88,9.501v13.01h-6.841v-12.2c0-2.836-0.992-4.772-3.467-4.772-1.89,0-3.013,1.305-3.509,2.565-0.18,0.46-0.22,1.09-0.22,1.72v12.69h-6.844v-14.99z"/>
</svg>
