<?xml version="1.0" encoding="UTF-8" standalone="no"?>
<svg id="svg2" xmlns:rdf="http://www.w3.org/1999/02/22-rdf-syntax-ns#" xmlns="http://www.w3.org/2000/svg" height="48" width="44.81" version="1.1" xmlns:cc="http://creativecommons.org/ns#" xmlns:dc="http://purl.org/dc/elements/1.1/" viewbox="0 0 48 48">
 <metadata id="metadata23">
  <rdf:RDF>
   <cc:Work rdf:about="">
    <dc:format>image/svg+xml</dc:format>
    <dc:type rdf:resource="http://purl.org/dc/dcmitype/StillImage"/>
    <dc:title/>
   </cc:Work>
  </rdf:RDF>
 </metadata>
 <g id="layer1" transform="translate(-294.74403,-570.11217)">
  <g id="g4959" transform="matrix(0.27988338,0,0,0.27988338,-317.64081,328.15299)">
   <path id="path4961" style="fill:none;" d="m2234,944.7c0,12.8,6.9,24,17.1,30.2,1.4,0.8,2.2,2.3,2.2,3.9v20.3h15.9v-89.6c-9.7,0-18.5,3.9-24.9,10.3s-10.3,15.2-10.3,24.9z"/>
   <path id="path4963" style="fill:#ffffff;" d="m2226,907.9c0.8,0.8,1.8,1.2,2.9,1.2s2.1-0.4,3-1.2c1.6-1.6,1.6-4.2,0-5.8l-3-3-11.1-11c-1.6-1.6-4.2-1.6-5.8,0s-1.6,4.2,0,5.8l14,14z"/>
   <path id="path4965" style="fill:#ffffff;" d="m2216,944.8c0-2.3-1.8-4.1-4.1-4.1h-19.8c-2.3,0-4.1,1.8-4.1,4.1s1.8,4.1,4.1,4.1h19.8c2.2,0,4.1-1.9,4.1-4.1z"/>
   <path id="path4967" style="fill:#ffffff;" d="m2228,980.5c-1,0-2.1,0.4-2.9,1.2l-14,14c-1.6,1.6-1.6,4.2,0,5.8s4.2,1.6,5.8,0l11.1-11.1,3-3c1.6-1.6,1.6-4.2,0-5.8-0.9-0.7-1.9-1.1-3-1.1z"/>
   <path id="path4969" style="fill:#ffffff;" d="m2269,864.5h-0.6c-2.3,0-4.4,1.9-4.4,4.1v19.8c0,2.3,2,4.1,4.2,4.1h0.6c2.1-0.2,4.1-1.9,4.1-4.1v-19.8c0.2-2.1-1.7-3.9-3.9-4.1z"/>
   <path id="path4971" style="fill:#ffffff;" d="m2325,888c-1.6-1.6-4.2-1.6-5.8,0l-10.7,10.7-3.3,3.3c-1.6,1.6-1.6,4.2,0,5.8,0.9,0.9,2.1,1.3,3.3,1.2,0.9-0.1,1.8-0.5,2.5-1.2l14-14c1.6-1.6,1.6-4.2,0-5.8z"/>
   <path id="path4973" style="fill:#ffffff;" d="m2344,940.7h-19.8c-2.3,0-4.1,1.8-4.1,4.1s1.8,4.1,4.1,4.1h19.8c2.3,0,4.1-1.8,4.1-4.1s-1.8-4.1-4.1-4.1z"/>
   <path id="path4975" style="fill:#ffffff;" d="m2311,981.7c-0.7-0.7-1.6-1.1-2.5-1.2-1.2-0.1-2.4,0.3-3.3,1.2-1.6,1.6-1.6,4.2,0,5.8l3.3,3.3,10.7,10.7c1.6,1.6,4.2,1.6,5.8,0s1.6-4.2,0-5.8l-14-14z"/>
   <g id="g4977">
    <path id="path4979" style="fill:#ffffff;" d="m2309,964.2c2.9-5.9,4.5-12.4,4.5-19.4s-1.6-13.3-4.5-19.2c-7.2-14.8-22.4-24.6-39.9-24.6-17.8,0-33.1,10.1-40.2,25.2-2.7,5.7-4.2,11.9-4.2,18.7,0,6.7,1.2,13,3.9,18.7,3.4,7.2,8.8,13.3,14.8,17.7v25.7h50v-25.1c6-4.4,12.1-10.5,15.6-17.7zm-25,15.1v19.7h-31v-20.1c0-1.6-0.9-3.1-2.3-3.9-10.2-6.2-17.2-17.4-17.2-30.2,0-9.7,3.9-18.8,10.3-25.2s15.1-10.6,24.9-10.6c9.7,0,18.5,4.2,24.9,10.6s10.4,15.3,10.4,25c0,13.1-7.1,24.6-17.8,30.7-1.4,0.8-2.2,2.4-2.2,4z"/>
    <g id="g4981">
     <path id="path4983" style="fill:#ffffff;" d="m2293,1014v-0.3h-50v0.3c0,2.7,0.8,5.7,1.7,7.7h46.8c0.9-2,1.5-5,1.5-7.7z"/>
    </g>
   </g>
   <path id="path4985" style="fill:#ffffff;" d="m2248,1028c4.1,5,10.6,8,17.7,8h5.4c7.2,0,13.5-3,17.4-8h-40z"/>
  </g>
 </g>
</svg>
