<?xml version="1.0" encoding="UTF-8" standalone="no"?>
<svg id="svg2" xmlns:rdf="http://www.w3.org/1999/02/22-rdf-syntax-ns#" xmlns="http://www.w3.org/2000/svg" version="1.1" xml:space="preserve" height="100%" viewBox="0 0 79.6 60.542408" width="100%" enable-background="new 0 0 960 560" y="0px" x="0px" xmlns:cc="http://creativecommons.org/ns#" xmlns:dc="http://purl.org/dc/elements/1.1/"><metadata id="metadata13"><rdf:RDF><cc:Work rdf:about=""><dc:format>image/svg+xml</dc:format><dc:type rdf:resource="http://purl.org/dc/dcmitype/StillImage"/><dc:title/></cc:Work></rdf:RDF></metadata><g id="_x33_43._Playlist_1_" transform="translate(-445.5,-249.50671)"><g id="g5"><path id="path7" style="fill:#ffffff;" d="m457.3,255.4-8.6-5.4c-1.7-1.1-3.2-0.3-3.2,1.8v11.2c0,2.1,1.4,2.8,3.2,1.8l8.6-5.4c1.7-1.2,1.7-3,0-4zm55.5-3.7h-36.2c-2.1,0-3.7,1.7-3.7,3.7v3.7c0,2.1,1.7,3.7,3.7,3.7h44.8c2.1,0,3.7-1.7,3.7-3.7v-3.7c0-2-1.7-3.7-3.7-3.7zm-64.1,35.4,8.6-5.4c1.7-1.1,1.7-2.7-0.2-3.7l-8.3-4.1c-1.8-0.9-3.3,0-3.3,2.1v9.3c0,2.1,1.4,2.9,3.2,1.8zm64.1-13h-36.2c-2.1,0-3.7,1.7-3.7,3.7v3.7c0,2.1,1.7,3.7,3.7,3.7h44.8c2.1,0,3.7-1.7,3.7-3.7v-3.7c0-2-1.7-3.7-3.7-3.7zm-55.5,26.1-8.6-5.4c-1.7-1.1-3.2-0.3-3.2,1.8v11.2c0,2.1,1.4,2.8,3.2,1.8l8.6-5.4c1.7-1.2,1.7-2.9,0-4zm55.5-3.6h-36.2c-2.1,0-3.7,1.7-3.7,3.7v3.7c0,2.1,1.7,3.7,3.7,3.7h44.8c2.1,0,3.7-1.7,3.7-3.7v-3.7c0-2.1-1.7-3.7-3.7-3.7z"/></g></g></svg>
