<svg xmlns="http://www.w3.org/2000/svg" viewbox="0 0 48 48" version="1.1">
 <g id="layer1" transform="translate(0,-1004.3622)">
  <g id="_x33_43._Playlist_1_" transform="matrix(0.67605634,0,0,0.67605634,-1505.2394,-118.07921)">
   <g id="g4861">
    <path id="path4863" style="fill:#ffffff;" d="m2238,1671-8.6-5.4c-1.7-1.1-3.2-0.3-3.2,1.8v11.2c0,2.1,1.4,2.8,3.2,1.8l8.6-5.4c1.7-1.2,1.7-3,0-4zm55.5-3.7h-35c-2.1,0-3.7,1.7-3.7,3.7v3.7c0,2.1,1.7,3.7,3.7,3.7h44.8c2.1,0,3.7-1.7,3.7-3.7v-3.7c0-2-1.7-3.7-3.7-3.7zm-64.1,35.4,8.6-5.4c1.7-1.1,1.7-2.7-0.2-3.7l-8.3-4.1c-1.8-0.9-3.3,0-3.3,2.1v9.3c0,2.1,1.4,2.9,3.2,1.8zm64.1-13h-35c-2.1,0-3.7,1.7-3.7,3.7v3.7c0,2.1,1.7,3.7,3.7,3.7h44.8c2.1,0,3.7-1.7,3.7-3.7v-3.7c0-2-1.7-3.7-3.7-3.7zm-55.5,26.1-8.6-5.4c-1.7-1.1-3.2-0.3-3.2,1.8v11.2c0,2.1,1.4,2.8,3.2,1.8l8.6-5.4c1.7-1.2,1.7-2.9,0-4zm55.5-3.6h-35c-2.1,0-3.7,1.7-3.7,3.7v3.7c0,2.1,1.7,3.7,3.7,3.7h44.8c2.1,0,3.7-1.7,3.7-3.7v-3.7c0-2.1-1.7-3.7-3.7-3.7z"/>
   </g>
  </g>
 </g>
</svg>
