<svg xmlns="http://www.w3.org/2000/svg" viewbox="0 0 48 48" version="1.1">
 <g id="layer1" transform="translate(0,-1004.3622)">
  <g id="g4867" transform="matrix(0.36783881,0,0,0.36783881,-809.17092,245.93465)">
   <path id="path4869" style="fill:#ffffff;" d="m2252,2117c1.7,1.6,1.4,5.9,0.8,7.2-0.5,1.2-2.9,1.8-5.2,1.3s-4.7,1.7-5.4,4.8c-0.7,3.2,0.6,6.2,2.9,6.7s4.2,4.4,4.3,5.8-1.6,3.1-3.8,3.8-3.3,3.8-2.3,6.9,3.6,5,5.9,4.3c2.2-0.7,4.6-0.4,5.3,0.8s1.4,5.5-0.1,7.2c-1.6,1.7-0.9,5,1.5,7.1,2.4,2.2,5.7,2.5,7.2,0.8,1.6-1.8,5.9-1.4,7.2-0.8,1.2,0.6,1.8,2.9,1.3,5.2s1.7,4.7,4.8,5.4c3.2,0.7,6.2-0.6,6.7-2.9s4.4-4.2,5.8-4.3c1.3-0.1,3,1.6,3.8,3.8,0.7,2.2,3.8,3.3,6.9,2.3s5-3.6,4.3-5.9c-0.7-2.2,1.8-5.8,2.9-6.6s3.4-0.1,5.2,1.4c1.7,1.6,4.9,0.9,7.1-1.5s2.5-5.7,0.8-7.2c-1.7-1.6-1.4-5.9-0.8-7.2,0.6-1.2,2.9-1.8,5.2-1.3s4.7-1.7,5.4-4.8c0.7-3.2-0.6-6.2-2.9-6.7s-4.2-4.4-4.3-5.8,1.6-3.1,3.8-3.8,3.3-3.8,2.3-6.9-3.6-5-5.9-4.3c-2.2,0.7-5.8-1.8-6.6-2.9s-0.1-3.4,1.5-5.2c1.6-1.7,0.9-4.9-1.5-7.1s-5.7-2.5-7.2-0.8c-1.6,1.7-5.9,1.4-7.2,0.8-1.2-0.6-1.8-2.9-1.3-5.2s-1.7-4.7-4.9-5.4-6.2,0.6-6.6,3c-0.5,2.3-4.4,4.2-5.8,4.3s-3-1.6-3.8-3.8c-0.7-2.2-3.8-3.3-6.9-2.3s-5,3.6-4.3,5.9c0.7,2.2-1.8,5.8-2.9,6.6s-3.4,0.1-5.1-1.4c-1.7-1.6-4.9-0.9-7.1,1.5-2.4,2.3-2.8,5.6-1,7.2zm26-1.7c13.5-4.3,28,3.1,32.3,16.6s-3.1,28-16.6,32.3-28-3.1-32.3-16.6,3.1-27.9,16.6-32.3z"/>
   <path id="path4871" style="fill:#ffffff;" d="m2206,2084c1.1,1,0.9,3.8,0.5,4.6s-1.9,1.2-3.3,0.9c-1.5-0.3-3.1,1.1-3.5,3.1s0.4,4,1.9,4.3,2.7,2.8,2.8,3.7-1,2-2.5,2.4c-1.4,0.5-2.1,2.5-1.5,4.4,0.6,2,2.3,3.2,3.8,2.8,1.4-0.5,3-0.2,3.4,0.5,0.4,0.8,0.9,3.5-0.1,4.6s-0.6,3.2,1,4.6c1.5,1.4,3.6,1.6,4.6,0.5s3.8-0.9,4.6-0.5,1.2,1.9,0.9,3.3c-0.3,1.5,1.1,3.1,3.1,3.5s4-0.4,4.3-1.9,2.8-2.7,3.7-2.8,2,1,2.4,2.5c0.5,1.4,2.5,2.1,4.4,1.5,2-0.6,3.2-2.3,2.8-3.8-0.5-1.4,1.2-3.8,1.9-4.3s2.2-0.1,3.3,0.9,3.2,0.6,4.6-1c1.4-1.5,1.6-3.6,0.5-4.7-1.1-1-0.9-3.8-0.5-4.6s1.9-1.2,3.3-0.9c1.5,0.3,3.1-1.1,3.5-3.1s-0.4-4-1.9-4.3-2.7-2.9-2.8-3.7c-0.1-0.9,1-2,2.5-2.4,1.4-0.5,2.1-2.5,1.5-4.4-0.6-2-2.3-3.2-3.8-2.8-1.4,0.5-3.8-1.2-4.3-1.9s-0.1-2.2,0.9-3.3,0.6-3.2-1-4.6c-1.5-1.4-3.6-1.6-4.7-0.5-1,1.1-3.8,0.9-4.6,0.5s-1.2-1.9-0.9-3.3c0.3-1.5-1.1-3.1-3.1-3.5s-4,0.4-4.3,1.9-2.8,2.7-3.7,2.8-2-1-2.4-2.5c-0.5-1.4-2.5-2.1-4.4-1.5-2,0.6-3.2,2.3-2.8,3.8,0.5,1.4-1.2,3.8-1.9,4.3s-2.2,0.1-3.3-0.9-3.2-0.6-4.6,1c-1.2,1.7-1.4,3.8-0.3,4.8zm16.8-1c8.7-2.8,18,2,20.8,10.7s-2,18-10.7,20.8-18-2-20.8-10.7,2-18,10.7-20.8z"/>
   <path id="path4873" style="fill:#ffffff;" d="m2205,2138c0.9,0.8,0.7,2.9,0.4,3.5s-1.4,0.9-2.6,0.7c-1.1-0.2-2.3,0.8-2.7,2.4-0.3,1.6,0.3,3,1.5,3.3,1.1,0.3,2.1,2.2,2.1,2.9,0.1,0.7-0.8,1.5-1.9,1.9s-1.6,1.9-1.1,3.4,1.8,2.5,2.9,2.1,2.3-0.2,2.6,0.4,0.7,2.7-0.1,3.6-0.5,2.4,0.7,3.5,2.8,1.2,3.6,0.4c0.8-0.9,2.9-0.7,3.5-0.4s0.9,1.4,0.7,2.6c-0.2,1.1,0.8,2.3,2.4,2.7,1.6,0.3,3-0.3,3.3-1.5,0.2-1.1,2.2-2.1,2.9-2.1,0.7-0.1,1.5,0.8,1.9,1.9s1.9,1.6,3.4,1.1,2.5-1.8,2.1-2.9,0.9-2.9,1.4-3.3,1.7-0.1,2.5,0.7c0.9,0.8,2.4,0.4,3.5-0.7,1.1-1.2,1.2-2.8,0.4-3.6-0.9-0.8-0.7-2.9-0.4-3.5s1.4-0.9,2.6-0.7c1.1,0.2,2.3-0.8,2.7-2.4,0.3-1.6-0.3-3-1.5-3.3-1.1-0.3-2.1-2.2-2.1-2.9-0.1-0.7,0.8-1.5,1.9-1.9s1.6-1.9,1.1-3.4-1.8-2.5-2.9-2.1-2.9-0.9-3.3-1.4-0.1-1.7,0.7-2.5c0.8-0.9,0.4-2.4-0.7-3.5-1.2-1.1-2.8-1.2-3.6-0.4-0.8,0.9-2.9,0.7-3.5,0.4s-0.9-1.4-0.7-2.6c0.2-1.1-0.8-2.4-2.4-2.7s-3,0.3-3.3,1.5c-0.2,1.1-2.2,2.1-2.9,2.1-0.7,0.1-1.5-0.8-1.9-1.9s-1.9-1.6-3.4-1.1-2.5,1.8-2.1,2.9-0.9,2.9-1.4,3.3-1.7,0.1-2.6-0.7-2.4-0.5-3.5,0.7c-0.9,1.1-1.1,2.7-0.2,3.5zm12.9-0.8c6.7-2.1,13.8,1.5,16,8.2,2.1,6.7-1.5,13.8-8.2,16-6.7,2.1-13.8-1.5-16-8.2-2.2-6.8,1.5-13.9,8.2-16z"/>
  </g>
 </g>
</svg>
