<?xml version="1.0" encoding="UTF-8"?>
<svg width="185px" height="70px" viewBox="0 0 185 70" version="1.1" xmlns="http://www.w3.org/2000/svg" xmlns:xlink="http://www.w3.org/1999/xlink">
    <!-- Generator: Sketch 45.2 (43514) - http://www.bohemiancoding.com/sketch -->
    <title>ck4jVUqKg</title>
    <desc>Created with Sketch.</desc>
    <defs></defs>
    <g id="Page-1" stroke="none" strokeWidth="1" fill="none" fillRule="evenodd">
        <g id="articles" fillRule="nonzero" fill="#000000">
            <g id="ck4jVUqKg-link">
                <path d="M146.213282,0.109266354 L147.579112,0.243365971 L148.925074,0.432098765 L150.256137,0.665531432 L151.567334,0.953597275 L152.858663,1.28636299 L154.135093,1.66879523 L155.386689,2.100894 L156.618419,2.57272598 L157.825316,3.09422449 L159.012346,3.65545622 L160.169576,4.26138782 L161.306939,4.9120193 L162.409536,5.59741734 L163.492266,6.32751525 L164.54023,7.09237974 L165.56336,7.89697744 L166.551724,8.73634171 L167.510288,9.61047254 L168.434085,10.5243366 L169.323116,11.4680006 L170.182347,12.4414645 L171.001845,13.4496949 L171.781609,14.4877253 L172.526607,15.5555556 L173.231872,16.6482191 L173.897403,17.7706826 L174.523201,18.9229459 L175.1043,20.0950759 L175.640698,21.2920392 L176.137363,22.5138357 L176.589329,23.7604654 L176.991628,25.0219952 L177.34426,26.3083582 L177.652192,27.6145878 L177.915425,28.9357173 L178.119058,30.2767135 L178.277991,31.6326096 L178.38229,33.0034057 L184.838939,33.0034057 L184.838939,37.0015609 L178.38229,37.0015609 L178.277991,38.372357 L178.119058,39.7282532 L177.915425,41.0692493 L177.652192,42.3903789 L177.34426,43.6916418 L176.991628,44.9780048 L176.589329,46.2445012 L176.137363,47.4861643 L175.640698,48.7079608 L175.1043,49.9049241 L174.523201,51.0820207 L173.897403,52.2293174 L173.231872,53.3517809 L172.526607,54.4494111 L171.781609,55.5122747 L171.001845,56.5503051 L170.182347,57.5585355 L169.323116,58.5369661 L168.434085,59.4806301 L167.510288,60.3895275 L166.551724,61.2636583 L165.56336,62.1030226 L164.54023,62.9076203 L163.492266,63.6724847 L162.409536,64.4025827 L161.306939,65.0879807 L160.169576,65.7386122 L159.012346,66.3445438 L157.825316,66.9057755 L156.618419,67.427274 L155.386689,67.899106 L154.135093,68.3312048 L152.858663,68.713637 L151.567334,69.0464027 L150.256137,69.3344686 L148.925074,69.5679012 L147.579112,69.756634 L146.213282,69.8907336 L144.83752,69.9702001 L143.446857,70 L142.006528,69.9702001 L140.581098,69.8808003 L139.170569,69.7367674 L137.779906,69.5381013 L136.404144,69.284802 L135.048247,68.9818362 L133.712218,68.6192706 L132.396055,68.2120051 L131.104725,67.7501064 L129.838229,67.2435079 L128.591599,66.6872428 L127.374769,66.0862778 L126.187739,65.440613 L125.025543,64.7452817 L123.893146,64.0151838 L122.790549,63.2354193 L121.717752,62.4208883 L120.684689,61.5616574 L119.676458,60.66766 L118.707961,59.7339293 L117.779197,58.7654321 L116.885199,57.7621683 L116.025968,56.7291046 L115.211437,55.6563076 L114.431673,54.5537108 L113.696608,53.421314 L113.006244,52.2591174 L112.360579,51.0720874 L111.759614,49.8552576 L111.203349,48.6086278 L110.69675,47.3421314 L110.234852,46.0508018 L109.827586,44.7396055 L109.465021,43.403576 L109.162055,42.0476799 L108.908755,40.6719171 L108.705123,39.2762878 L108.566056,37.8707251 L108.476657,36.4403292 L108.446857,35.0049667 L108.431957,34.3444019 L108.392224,33.6888037 L108.327657,33.0431389 L108.238257,32.4074074 L108.124024,31.7766425 L107.979991,31.155811 L107.816092,30.5399461 L107.627359,29.9389811 L107.41876,29.3479495 L107.185327,28.7668511 L106.932028,28.1956861 L106.658862,27.639421 L106.360863,27.0930893 L106.042997,26.5616574 L105.705265,26.0451256 L105.352632,25.538527 L104.980133,25.0468284 L104.587768,24.5749965 L104.175536,24.1130978 L103.748404,23.6710657 L103.306372,23.2439336 L102.844473,22.8317014 L102.372641,22.4393359 L101.880942,22.066837 L101.374344,21.709238 L100.857812,21.3764723 L100.32638,21.0586065 L99.7800482,20.7606074 L99.2237832,20.4874415 L98.6526181,20.2291755 L98.0715198,20.0007095 L97.4804882,19.7871435 L96.8795232,19.5984107 L96.2686249,19.4345111 L95.6428267,19.2954449 L95.0170285,19.1812119 L94.3763304,19.0868455 L93.7306655,19.022279 L93.0750674,18.9825458 L92.4194693,18.9676458 L91.7589045,18.9825458 L91.1033064,19.022279 L90.4576415,19.0868455 L89.82191,19.1812119 L89.1911452,19.2954449 L88.5703136,19.4345111 L87.9594154,19.5984107 L87.3534838,19.7871435 L86.7624521,20.0007095 L86.1813538,20.2291755 L85.6151554,20.4874415 L85.0588903,20.7606074 L84.5125585,21.0586065 L83.9811267,21.3764723 L83.4596282,21.709238 L82.9579963,22.066837 L82.4662977,22.4393359 L81.9894991,22.8317014 L81.532567,23.2439336 L81.090535,23.6710657 L80.6634029,24.1130978 L80.2511707,24.5749965 L79.8588052,25.0468284 L79.4863062,25.538527 L79.1287073,26.0451256 L78.7909749,26.5616574 L78.4780758,27.0930893 L78.1800766,27.639421 L77.9069107,28.1956861 L77.6486448,28.7668511 L77.4201788,29.3479495 L77.2066127,29.9389811 L77.0178799,30.5399461 L76.8539804,31.155811 L76.7149141,31.7766425 L76.6006811,32.4074074 L76.5063147,33.0431389 L76.4417483,33.6888037 L76.402015,34.3444019 L76.3871151,35.0049667 L76.3573152,36.4403292 L76.2728821,37.8707251 L76.1288492,39.2762878 L75.9301831,40.6719171 L75.6768838,42.0476799 L75.3689513,43.403576 L75.0113523,44.7396055 L74.6040868,46.0508018 L74.1421882,47.3421314 L73.6355896,48.6086278 L73.0793245,49.8552576 L72.4783596,51.0720874 L71.8277281,52.2591174 L71.1373634,53.421314 L70.4022989,54.5537108 L69.6275011,55.6563076 L68.8129701,56.7291046 L67.9537392,57.7621683 L67.0597417,58.7654321 L66.1260111,59.7339293 L65.1575138,60.66766 L64.15425,61.5616574 L63.1162197,62.4208883 L62.0483894,63.2354193 L60.9457925,64.0151838 L59.8133958,64.7452817 L58.6511991,65.440613 L57.4592025,66.0862778 L56.2423726,66.6872428 L55.0007095,67.2435079 L53.7342131,67.7501064 L52.4428835,68.2120051 L51.1267206,68.6192706 L49.7906911,68.9818362 L48.4347949,69.284802 L47.0590322,69.5381013 L45.6683695,69.7367674 L44.2578402,69.8808003 L42.832411,69.9702001 L41.3920817,70 L40.001419,69.9702001 L38.6206897,69.8907336 L37.2598269,69.756634 L35.9138641,69.5679012 L34.5828012,69.3344686 L33.2716049,69.0464027 L31.9802753,68.713637 L30.7038456,68.3312048 L29.4522492,67.899106 L28.2205194,67.427274 L27.0086562,66.9057755 L25.8265929,66.3445438 L24.6643962,65.7386122 L23.5319994,65.0879807 L22.4244359,64.4025827 L21.3466723,63.6724847 L20.293742,62.9076203 L19.2755783,62.1030226 L18.2822478,61.2636583 L17.3286505,60.3895275 L16.3998865,59.4806301 L15.5108557,58.5369661 L14.6565915,57.5585355 L13.8370938,56.5503051 L13.0523627,55.5122747 L12.3123315,54.4494111 L11.6070668,53.3517809 L10.9415354,52.2293174 L10.3157372,51.0820207 L9.73463885,49.9049241 L9.19327373,48.7079608 L8.70157514,47.4861643 L8.24960976,46.2445012 L7.84731091,44.9780048 L7.49467859,43.6916418 L7.18674613,42.3903789 L6.9284802,41.0692493 L6.7198808,39.7282532 L6.56591457,38.372357 L6.46161487,37.0015609 L0,37.0015609 L0,33.0034057 L6.46161487,33.0034057 L6.56591457,31.6326096 L6.7198808,30.2767135 L6.9284802,28.9357173 L7.18674613,27.6145878 L7.49467859,26.3083582 L7.85227756,25.0219952 L8.25457642,23.7604654 L8.70654179,22.5138357 L9.19824039,21.2920392 L9.73960551,20.0950759 L10.3207038,18.9229459 L10.9465021,17.7706826 L11.6120335,16.6482191 L12.3172981,15.5555556 L13.062296,14.4877253 L13.8420605,13.4496949 L14.6615581,12.4414645 L15.5158223,11.4680006 L16.4098198,10.5243366 L17.3336171,9.61047254 L18.2921811,8.73634171 L19.2805449,7.89697744 L20.3036753,7.09237974 L21.351639,6.32751525 L22.4294026,5.59741734 L23.5369661,4.9120193 L24.6743295,4.26138782 L25.8315595,3.65545622 L27.0185895,3.09422449 L28.225486,2.57272598 L29.4572158,2.100894 L30.7088123,1.66879523 L31.9852419,1.28636299 L33.2765716,0.953597275 L34.5877678,0.665531432 L35.9188307,0.432098765 L37.2647935,0.243365971 L38.630623,0.109266354 L40.0063857,0.0297999149 L41.3970484,0 L42.5840783,0.0198666099 L43.761175,0.0794664396 L44.9283383,0.178799489 L46.0806017,0.312899106 L47.2278984,0.486731943 L48.3553285,0.695331347 L49.477792,0.94366397 L50.5803888,1.22676316 L51.6730524,1.53966227 L52.7458493,1.89229459 L53.8087129,2.27472683 L54.8517099,2.69689229 L55.879807,3.14389102 L56.8930041,3.62565631 L57.881368,4.13722151 L58.8548318,4.67858663 L59.8133958,5.25471832 L60.7471264,5.85568327 L61.6609905,6.48644813 L62.5500213,7.14204626 L63.4241521,7.8274443 L64.268483,8.54264226 L65.097914,9.27770683 L65.8975451,10.0425713 L66.6723428,10.8322691 L67.427274,11.6418334 L68.1524053,12.476231 L68.8527033,13.3354619 L69.528168,14.2145594 L70.1738328,15.1184901 L70.7896977,16.0422875 L71.3807294,16.9859515 L71.9419611,17.949482 L72.4684263,18.9279126 L72.9700582,19.9311764 L73.4369235,20.9493401 L73.8690223,21.9824039 L74.2762878,23.0353342 L74.6438201,24.1031645 L74.9815524,25.1858947 L75.244785,24.7289627 L75.5179509,24.2869306 L75.8060167,23.8498652 L76.1040159,23.4177664 L76.4119483,22.995601 L76.7298141,22.5833688 L77.0576132,22.18107 L77.3953455,21.7837378 L77.7479779,21.3963389 L78.1055768,21.0188733 L78.4731091,20.651341 L78.8505747,20.293742 L79.2379736,19.9411097 L79.6353058,19.6033773 L80.0376047,19.2755783 L80.4498368,18.9577125 L80.8720023,18.64978 L81.304101,18.3517809 L81.7411665,18.0686817 L82.1881652,17.7905492 L82.6401306,17.5273166 L83.1020292,17.278984 L83.5688946,17.035618 L84.0407266,16.807152 L84.5224918,16.5935859 L85.0092238,16.3899532 L85.505889,16.2012204 L86.0075209,16.0224209 L86.5141195,15.8585214 L87.0256847,15.7045551 L87.5422165,15.5704555 L88.0637151,15.4462892 L88.5951469,15.3320562 L89.1265787,15.2376898 L89.6629772,15.1582234 L90.2093089,15.0886902 L90.7556407,15.034057 L91.3069391,14.9992905 L91.8582375,14.9744572 L92.4194693,14.9645239 L92.980701,14.9744572 L93.5319994,14.9992905 L94.0832979,15.034057 L94.6296296,15.0886902 L95.1759614,15.1582234 L95.7123599,15.2376898 L96.2437917,15.3320562 L96.7752235,15.4462892 L97.296722,15.5704555 L97.8132539,15.7045551 L98.3297857,15.8585214 L98.8314176,16.0224209 L99.3330495,16.2012204 L99.8297148,16.3899532 L100.316447,16.5935859 L100.798212,16.807152 L101.275011,17.035618 L101.741876,17.278984 L102.198808,17.5273166 L102.65574,17.7905492 L103.097772,18.0686817 L103.539804,18.3517809 L103.966936,18.64978 L104.389102,18.9577125 L104.801334,19.2755783 L105.208599,19.6033773 L105.605932,19.9411097 L105.988364,20.293742 L106.370796,20.651341 L106.738328,21.0188733 L107.095927,21.3963389 L107.443593,21.7837378 L107.786292,22.18107 L108.114091,22.5833688 L108.431957,22.995601 L108.739889,23.4177664 L109.037888,23.8498652 L109.325954,24.2869306 L109.59912,24.7289627 L109.862353,25.1858947 L110.200085,24.1031645 L110.567617,23.0353342 L110.974883,21.9824039 L111.406982,20.9493401 L111.873847,19.9311764 L112.375479,18.9279126 L112.901944,17.949482 L113.463176,16.9859515 L114.054207,16.0422875 L114.670072,15.1184901 L115.315737,14.2145594 L115.991202,13.3354619 L116.6915,12.476231 L117.416631,11.6418334 L118.166596,10.8322691 L118.94636,10.0425713 L119.745991,9.27770683 L120.570456,8.54264226 L121.419753,7.8274443 L122.288917,7.14204626 L123.182915,6.48644813 L124.096779,5.85568327 L125.030509,5.25471832 L125.984107,4.67858663 L126.957571,4.13722151 L127.950901,3.62565631 L128.959132,3.14389102 L129.987229,2.69689229 L131.035192,2.27472683 L132.093089,1.89229459 L133.170853,1.53966227 L134.25855,1.22676316 L135.366113,0.94366397 L136.48361,0.695331347 L137.616007,0.486731943 L138.763304,0.312899106 L139.915567,0.178799489 L141.08273,0.0794664396 L142.259827,0.0198666099 L143.446857,0 L144.83752,0.0297999149 L146.213282,0.109266354 Z M140.903931,4.1074216 L139.657301,4.23655456 L138.420605,4.4103874 L137.203775,4.63388676 L136.006811,4.90705265 L134.819781,5.2249184 L133.657585,5.58748404 L132.515255,5.99474954 L131.392791,6.44174826 L130.290194,6.93344686 L129.212431,7.46984532 L128.1595,8.04101036 L127.131403,8.65190861 L126.12814,9.30254009 L125.149709,9.99290478 L124.201078,10.7130694 L123.282248,11.4729672 L122.393217,12.2676316 L121.538953,13.0920959 L120.709522,13.9513268 L119.919824,14.8403576 L119.159926,15.7591883 L118.434795,16.7078189 L117.749397,17.6812828 L117.098765,18.6845466 L116.487867,19.7126437 L115.911735,20.765574 L115.380304,21.8433376 L114.888605,22.9459344 L114.43664,24.0683979 L114.029374,25.2156946 L113.666809,26.3778913 L113.348943,27.5599546 L113.080744,28.7618845 L112.852278,29.9787143 L112.678445,31.2154108 L112.549312,32.4620406 L112.474812,33.728537 L112.449979,35.0049667 L112.474812,36.2764297 L112.549312,37.5429261 L112.678445,38.7895558 L112.852278,40.0212857 L113.080744,41.2381155 L113.348943,42.4400454 L113.666809,43.6221087 L114.029374,44.789272 L114.43664,45.9316021 L114.888605,47.0540656 L115.380304,48.1566624 L115.911735,49.234426 L116.487867,50.2873563 L117.098765,51.3154534 L117.749397,52.3187172 L118.434795,53.2921811 L119.159926,54.2408117 L119.919824,55.1596424 L120.709522,56.0486732 L121.533986,56.9079041 L122.393217,57.7323684 L123.282248,58.5270328 L124.201078,59.281964 L125.149709,60.0070952 L126.123173,60.6974599 L127.126437,61.3431247 L128.1595,61.9589896 L129.212431,62.5301547 L130.290194,63.0615865 L131.387825,63.5582517 L132.515255,64.0052505 L133.657585,64.412516 L134.819781,64.7750816 L136.001845,65.0929474 L137.203775,65.3661132 L138.420605,65.5896126 L139.657301,65.7634454 L140.903931,65.8925784 L142.16546,65.9720448 L143.44189,65.9968781 L144.71832,65.9720448 L145.97985,65.8925784 L147.231446,65.7634454 L148.463176,65.5896126 L149.680006,65.3661132 L150.881936,65.0929474 L152.063999,64.7750816 L153.231162,64.412516 L154.373492,64.0052505 L155.495956,63.5582517 L156.598553,63.0665531 L157.676316,62.5301547 L158.729246,61.9589896 L159.757344,61.3480914 L160.760607,60.6974599 L161.734071,60.0070952 L162.682702,59.2869306 L163.601533,58.5270328 L164.490563,57.7323684 L165.349794,56.9079041 L166.174259,56.0486732 L166.968923,55.1596424 L167.723854,54.2408117 L168.448985,53.2971477 L169.134383,52.3187172 L169.785015,51.3154534 L170.40088,50.2873563 L170.972045,49.234426 L171.503477,48.1566624 L171.995175,47.0540656 L172.447141,45.9316021 L172.854406,44.789272 L173.216972,43.6270754 L173.534838,42.4400454 L173.808003,41.2430822 L174.031503,40.0212857 L174.205336,38.7895558 L174.334469,37.5429261 L174.408968,36.2764297 L174.438768,35.0049667 L174.408968,33.728537 L174.334469,32.4620406 L174.205336,31.2154108 L174.031503,29.9787143 L173.808003,28.7618845 L173.534838,27.5599546 L173.216972,26.3778913 L172.854406,25.2156946 L172.447141,24.0683979 L171.995175,22.9459344 L171.503477,21.8483042 L170.972045,20.7705407 L170.40088,19.7126437 L169.785015,18.6845466 L169.134383,17.6812828 L168.448985,16.7078189 L167.723854,15.7591883 L166.968923,14.8403576 L166.174259,13.9513268 L165.349794,13.0920959 L164.490563,12.2676316 L163.601533,11.4729672 L162.682702,10.718036 L161.734071,9.99290478 L160.760607,9.30750674 L159.757344,8.65687527 L158.729246,8.04101036 L157.676316,7.46984532 L156.598553,6.93841351 L155.495956,6.44174826 L154.373492,5.99474954 L153.231162,5.58748404 L152.063999,5.2249184 L150.881936,4.90705265 L149.680006,4.63388676 L148.463176,4.4103874 L147.231446,4.23655456 L145.97985,4.1074216 L144.71832,4.02795516 L143.44189,4.0031219 L142.16546,4.02795516 L140.903931,4.1074216 Z M38.8541223,4.1074216 L37.6025259,4.23655456 L36.3707961,4.4103874 L35.1539662,4.63388676 L33.9520363,4.90705265 L32.769973,5.2249184 L31.6028097,5.58748404 L30.4604796,5.99474954 L29.3380162,6.44174826 L28.2354193,6.93344686 L27.1576557,7.46984532 L26.1047254,8.04101036 L25.0766284,8.65190861 L24.0733646,9.30254009 L23.094934,9.99290478 L22.1463034,10.7130694 L21.2274727,11.4729672 L20.3384419,12.2676316 L19.4841777,13.0920959 L18.6547467,13.9513268 L17.865049,14.8403576 L17.1051511,15.7591883 L16.3800199,16.7078189 L15.6946218,17.6812828 L15.0439904,18.6845466 L14.4330921,19.7126437 L13.8569604,20.765574 L13.3255286,21.8433376 L12.83383,22.9459344 L12.3818646,24.0683979 L11.9745991,25.2156946 L11.6120335,26.3778913 L11.2941677,27.5599546 L11.0259685,28.7618845 L10.8024691,29.9787143 L10.6236696,31.2154108 L10.4995033,32.4620406 L10.4200369,33.728537 L10.3952036,35.0049667 L10.4200369,36.2764297 L10.4995033,37.5429261 L10.6236696,38.7895558 L10.8024691,40.0212857 L11.0259685,41.2381155 L11.2991344,42.4400454 L11.6170001,43.6221087 L11.9795658,44.789272 L12.3868313,45.9316021 L12.83383,47.0540656 L13.3255286,48.1566624 L13.8619271,49.234426 L14.4330921,50.2873563 L15.0439904,51.3154534 L15.6946218,52.3187172 L16.3849865,53.2921811 L17.1051511,54.2408117 L17.865049,55.1596424 L18.6597134,56.0486732 L19.4841777,56.9079041 L20.3434085,57.7323684 L21.2324393,58.5270328 L22.15127,59.281964 L23.0999007,60.0070952 L24.0733646,60.6974599 L25.0766284,61.3431247 L26.1047254,61.9589896 L27.1576557,62.5301547 L28.2354193,63.0615865 L29.3380162,63.5582517 L30.4604796,64.0052505 L31.6028097,64.412516 L32.769973,64.7750816 L33.9520363,65.0929474 L35.1539662,65.3661132 L36.3707961,65.5896126 L37.6025259,65.7634454 L38.8541223,65.8925784 L40.1156521,65.9720448 L41.3920817,65.9968781 L42.6685114,65.9720448 L43.9300412,65.8925784 L45.1766709,65.7634454 L46.4133674,65.5896126 L47.6301972,65.3661132 L48.8271605,65.0929474 L50.0141904,64.7750816 L51.1763871,64.412516 L52.3187172,64.0052505 L53.4411806,63.5582517 L54.5437775,63.0665531 L55.6215411,62.5301547 L56.6744714,61.9589896 L57.7025685,61.3480914 L58.7058323,60.6974599 L59.6842628,60.0070952 L60.6328934,59.2869306 L61.5517241,58.5270328 L62.4407549,57.7323684 L63.2950192,56.9079041 L64.1244501,56.0486732 L64.9141479,55.1596424 L65.6740457,54.2408117 L66.399177,53.2971477 L67.084575,52.3187172 L67.7352065,51.3154534 L68.3461047,50.2873563 L68.9222364,49.234426 L69.4536682,48.1566624 L69.9453668,47.0540656 L70.3973322,45.9316021 L70.8045977,44.789272 L71.1671633,43.6270754 L71.4850291,42.4400454 L71.7532283,41.2430822 L71.9816943,40.0212857 L72.1555272,38.7895558 L72.2846601,37.5429261 L72.3591599,36.2764297 L72.3839932,35.0049667 L72.3591599,33.728537 L72.2846601,32.4620406 L72.1555272,31.2154108 L71.9816943,29.9787143 L71.7532283,28.7618845 L71.4850291,27.5599546 L71.1671633,26.3778913 L70.8045977,25.2156946 L70.3973322,24.0683979 L69.9453668,22.9459344 L69.4536682,21.8483042 L68.9222364,20.7705407 L68.3461047,19.7126437 L67.7352065,18.6845466 L67.084575,17.6812828 L66.399177,16.7078189 L65.6740457,15.7591883 L64.9141479,14.8403576 L64.1244501,13.9513268 L63.2999858,13.0920959 L62.4407549,12.2676316 L61.5517241,11.4729672 L60.6328934,10.718036 L59.6842628,9.99290478 L58.7107989,9.30750674 L57.7075351,8.65687527 L56.6744714,8.04101036 L55.6215411,7.46984532 L54.5437775,6.93841351 L53.4461473,6.44174826 L52.3187172,5.99474954 L51.1763871,5.58748404 L50.0141904,5.2249184 L48.8321271,4.90705265 L47.6301972,4.63388676 L46.4133674,4.4103874 L45.1766709,4.23655456 L43.9300412,4.1074216 L42.6685114,4.02795516 L41.3920817,4.0031219 L40.1156521,4.02795516 L38.8541223,4.1074216 Z" id="ck4jVUqKg"></path>
            </g>
        </g>
    </g>
</svg>
