<?xml version="1.0" encoding="UTF-8"?>
<svg width="50px" height="70px" viewBox="0 0 50 70" version="1.1" xmlns="http://www.w3.org/2000/svg" xmlns:xlink="http://www.w3.org/1999/xlink">
    <!-- Generator: Sketch 45.2 (43514) - http://www.bohemiancoding.com/sketch -->
    <title>projects</title>
    <desc>Created with Sketch.</desc>
    <defs></defs>
    <g id="Page-1" stroke="none" stroke-width="1" fill="none" fill-rule="evenodd">
        <g id="projects" transform="translate(-1.000000, 0.000000)" fill-rule="nonzero" fill="#000000">
            <path d="M17.311466,0.00993 C17.0136352,0.0502150657 16.7497244,0.22224269 16.592762,0.47841 C14.90406,2.94257 14.328261,4.60389 14.71788,6.03764 C15.1075,7.47138 16.302213,8.14886 17.155226,8.75479 C18.008239,9.36071 18.594038,9.83116 18.780123,10.81607 C18.966208,11.80098 18.719903,13.56477 17.123978,16.56269 C16.901294,16.8784691 16.8806275,17.2942378 17.0708996,17.6305221 C17.2611717,17.9668064 17.628308,18.1633836 18.0138276,18.1353978 C18.3993471,18.1074119 18.7342101,17.8598747 18.873867,17.49964 C20.573655,14.30661 21.068714,12.13481 20.748748,10.44129 C20.428782,8.74778 19.239825,7.79023 18.311403,7.13074 C17.38298,6.47125 16.796075,6.02488 16.655258,5.5067 C16.51444,4.98851 16.690668,3.87654 18.248907,1.60275 C18.4933041,1.27996962 18.5187848,0.841728805 18.3134413,0.492826594 C18.1080978,0.143924383 17.7124791,-0.0467419232 17.311466,0.00993 L17.311466,0.00993 Z M29.310705,5.00699 C29.0128742,5.04727507 28.7489634,5.21930269 28.592001,5.47547 C26.903299,7.93963 26.327501,9.60095 26.71712,11.0347 C27.106739,12.46844 28.301452,13.14592 29.154465,13.75185 C30.007478,14.35777 30.593277,14.82822 30.779362,15.81313 C30.965448,16.79804 30.719142,18.56183 29.123217,21.55975 C28.900533,21.8755291 28.8798665,22.2912978 29.0701386,22.6275821 C29.2604107,22.9638664 29.627547,23.1604436 30.0130666,23.1324578 C30.3985861,23.1044719 30.7334491,22.8569347 30.873106,22.4967 C32.572895,19.30367 33.067953,17.13187 32.747988,15.43835 C32.428022,13.74484 31.239064,12.78729 30.310642,12.1278 C29.38222,11.46831 28.795314,11.02194 28.654497,10.50376 C28.51368,9.98557 28.689907,8.8736 30.248146,6.59981 C30.4925431,6.27702962 30.5180238,5.83878881 30.3126803,5.48988659 C30.1073368,5.14098438 29.7117181,4.95031808 29.310705,5.00699 L29.310705,5.00699 Z M1.812448,28.0247 C1.30981443,28.1189604 0.959322959,28.577053 1,29.08657 C1.944016,44.94665 6.04817,60.59685 11.124358,69.50035 C11.3045902,69.8123439 11.6388647,70.0032553 11.999303,70.00005 L35.997782,70.00005 C36.3582199,70.0032549 36.692494,69.8123436 36.872726,69.50035 C37.943788,67.62165 38.971074,65.42205 39.935032,63.00415 L45.997148,63.00415 C48.749676,63.00415 50.996831,60.75815 50.996831,58.00715 L50.996831,39.01815 C50.996831,36.47075 49.061462,34.35155 46.59086,34.05245 C46.756255,32.40549 46.898339,30.74557 46.997084,29.08657 C47.0143275,28.8108716 46.9166435,28.5403335 46.7272208,28.3391785 C46.5377982,28.1380234 46.2735291,28.0241896 45.997148,28.0247 L1.999936,28.0247 C1.96870651,28.0232355 1.93742549,28.0232355 1.906196,28.0247 C1.87496651,28.0232355 1.84368549,28.0232355 1.812456,28.0247 L1.812448,28.0247 Z M3.124865,30.02352 L44.872219,30.02352 C43.840583,44.99345 39.93302,59.68695 35.341573,68.00125 L12.655511,68.00125 C8.064064,59.68695 4.156502,44.99345 3.124865,30.02352 Z M46.372124,36.05125 C47.870917,36.22915 48.996958,37.46555 48.996958,39.01815 L48.996958,58.00715 C48.996958,59.68535 47.676338,61.00535 45.997148,61.00535 L40.684985,61.00535 C43.258971,53.95435 45.30382,45.21385 46.372124,36.05125 L46.372124,36.05125 Z" id="Shape"></path>
        </g>
    </g>
</svg>