<?xml version="1.0" encoding="UTF-8"?>
<svg width="46px" height="70px" viewBox="0 0 46 70" version="1.1" xmlns="http://www.w3.org/2000/svg" xmlns:xlink="http://www.w3.org/1999/xlink">
    <!-- Generator: Sketch 45.2 (43514) - http://www.bohemiancoding.com/sketch -->
    <title>talks</title>
    <desc>Created with Sketch.</desc>
    <defs></defs>
    <g id="Page-1" stroke="none" strokeWidth="1" fill="none" fillRule="evenodd">
        <g id="talks" fillRule="nonzero" fill="#000000">
            <path d="M22.7502677,-1.75e-05 C14.5247427,-1.75e-05 7.87553025,6.64937 7.87553025,14.8749825 L7.87553025,35.8750175 C7.87553025,44.10063 14.5247428,50.7500175 22.7502678,50.7500175 C30.9757053,50.7500175 37.6250053,44.10063 37.6250053,35.8750175 L37.6250053,14.8749825 C37.6250053,6.64937 30.9757053,-1.75e-05 22.7502678,-1.75e-05 L22.7502677,-1.75e-05 Z M22.7502677,1.7499825 C30.0364803,1.7499825 35.8750052,7.588595 35.8750052,14.8749825 L35.8750052,35.8750175 C35.8750052,43.161405 30.0364802,49.0000175 22.7502677,49.0000175 C15.4639677,49.0000175 9.62544275,43.161405 9.62544275,35.8750175 L9.62544275,14.8749825 C9.62544275,7.588595 15.4639677,1.7499825 22.7502677,1.7499825 L22.7502677,1.7499825 Z M0.766243625,25.3476388 C0.336443625,25.4015388 -0.016268875,25.81712 0.000618625,26.2499825 L0.000618625,35.8750175 C0.000618625,48.0121425 9.68704275,58.1329175 21.8752678,58.59763 L21.8752678,68.2500175 L10.5004428,68.2500175 C10.0171802,68.2500175 9.62544275,68.641755 9.62544275,69.1250175 C9.62544275,69.60828 10.0171802,70.0000175 10.5004428,70.0000175 L35.0000052,70.0000175 C35.4832677,70.0000175 35.8750052,69.60828 35.8750052,69.1250175 C35.8750052,68.641755 35.4831802,68.2430175 35.0000052,68.2500175 L23.6252677,68.2500175 L23.6252677,58.59763 C35.8134927,58.1329175 45.4998302,48.0121425 45.4998302,35.8750175 L45.4998302,26.2499825 C45.5085802,25.7870812 45.0877927,25.3605975 44.6248302,25.3605975 C44.1619552,25.3605975 43.7423927,25.7870812 43.7499177,26.2499825 L43.7499177,35.8750175 C43.7499177,47.34863 34.3910927,56.8750175 22.7502677,56.8750175 C11.1094427,56.8750175 1.75061775,47.34863 1.75061775,35.8750175 L1.75061775,26.2499825 C1.77074275,25.7440225 1.26858025,25.2840088 0.766243625,25.3476388 Z" id="Shape"></path>
        </g>
    </g>
</svg>
