<svg version="1.1" id="Layer_1" xmlns="http://www.w3.org/2000/svg" xmlns:xlink="http://www.w3.org/1999/xlink" x="0px" y="0px"
   viewBox="0 0 55 54.1" enable-background="new 0 0 55 54.1" xml:space="preserve">
<g>
  <g id="Small_Icons">
    <g id="Artboard_2">
      <g>
        <path fill="#FFFFFF" d="M54.7,50.5l-4-11.5L12.4,1.7c-2-2-5.3-2-7.3,0.1L1.5,5.5c-2,2.1-2,5.3,0.1,7.3l38.3,37.3l11.6,3.7
          C54.2,54.7,55.6,53.3,54.7,50.5z M7.5,13.2L3.4,9.2l5.4-5.6L13,7.7L7.5,13.2z M9,15.1l5.8-6l31.6,30.8l-5.8,6L9,15.1z
           M42.5,47.3l5.4-5.6l2.9,8.2L42.5,47.3z"/>
      </g>
    </g>
  </g>
  <path fill="#FFFFFF" d="M53.5,6.3l-3.7-3.7c-2-2-5.3-2-7.3,0L3.7,41.2c-2,2-2.1,5.3,0,7.3l3.7,3.7c2,2,5.3,2,7.3,0l38.8-38.6
    C55.5,11.6,55.5,8.4,53.5,6.3z"/>
  <path fill="#07963D" d="M10.9,51.2l-6.5-6.5l6.1-6.1l3.9,3.9c0.5,0.5,1.4,0.5,1.9,0c0.5-0.5,0.5-1.4,0-1.9l-3.9-3.9l4.8-4.8
    l3.9,3.9c0.5,0.5,1.4,0.5,1.9,0c0.5-0.5,0.5-1.4,0-1.9l-3.9-3.9l4.7-4.7l3.9,3.9c0.5,0.5,1.4,0.5,1.9,0c0.5-0.5,0.5-1.4,0-1.9
    l-3.9-3.9l5.2-5.2l3.9,3.9c0.5,0.5,1.4,0.5,1.9,0c0.5-0.5,0.5-1.4,0-1.9l-3.9-3.9l4.6-4.6l4.1,4.1c0.5,0.5,1.4,0.5,1.9,0
    c0.5-0.5,0.5-1.4,0-1.9l-4.1-4.1l6.5-6.5l6.5,6.5L10.9,51.2z"/>
</g>
</svg>
