<svg version="1.1" id="Layer_1" xmlns="http://www.w3.org/2000/svg" xmlns:xlink="http://www.w3.org/1999/xlink" x="0px" y="0px"
   viewBox="392 0 568 560" enable-background="new 392 0 568 560" xml:space="preserve">
<g>
  <g>
    <g>
      <g>
        <path fill="#FFFFFF" d="M944.2,485.5L824.1,365.4c24.8-37.3,39.3-81.8,39.3-130.4c1-129.4-104.5-235-233.9-235
          c-92.1,0-170.8,52.8-210.1,129.4l62.1,31.1c8.3-15.5,17.6-30,30-42.4C542.6,87,584,69.4,627.4,69.4s85,17.6,116,48.6
          c31,31,48.7,72.5,48.7,115.9c0,27.9-7.2,54.9-20.7,79.7c-7.2,13.5-16.6,25.9-27.9,37.3c-11.4,11.4-23.8,20.7-37.3,27.9
          c-23.8,13.5-50.7,20.7-79.7,20.7c-43.5,0-84.9-17.6-115.9-48.7c-6.2-6.2-12.4-13.5-17.6-20.7l-61.1,32.1
          c41.4,64.2,113.9,107.7,196.7,107.7c48.7,0,93.2-14.5,130.4-39.3l120.1,120.1c12.4,12.4,33.1,12.4,46.6,0l18.6-18.6
          C957.7,518.6,957.7,497.9,944.2,485.5z"/>
      </g>
      <g>
        <path fill="#FFFFFF" d="M410.5,256.6c-5.2-2.4-7.6-7.1-7.6-13.3c0-6.7,2.4-10.9,7.6-13.8c44.7-26.6,87.5-51.8,88.9-52.3
          s3.3-1,5.2-1c3.3,0,7.1,3.3,10.9,9.5c2.4,3.8,3.8,7.1,3.8,9s-0.5,3.8-1.4,5.2c-1,1.9-67,41.8-68.5,43.3c0,0,64.6,38.5,65.6,39.5
          c2.9,2.4,4.3,4.8,4.3,7.6c0,2.4-1,5.7-3.3,9.5s-4.3,6.2-6.2,8.1s-3.8,2.4-5.7,2.4C501.8,309.9,410.5,256.6,410.5,256.6z"/>
        <path fill="#FFFFFF" d="M579.3,319.4c-1.4,1-3.3,1.4-5.2,1.4c-2.4,0-5.2-1-10-2.9s-7.1-3.8-8.6-5.2s-2.4-3.3-2.4-4.8
          c0-1.9,69.9-148.8,71.8-149.7c1-0.5,2.4-1,4.8-1s5.2,1.4,9.5,3.3c7.1,3.3,10.5,7.1,10.5,10.9
          C650.1,173.4,580.7,318.4,579.3,319.4z"/>
        <path fill="#FFFFFF" d="M764.2,229.5c5.2,2.4,7.6,7.1,7.6,13.8s-2.4,10.9-7.6,13.3L681,306c-6.7,4.3-11.9,4.8-16.2,1.4
          c-1.9-1.4-3.8-3.8-5.7-7.1c-2.4-4.3-3.8-7.6-3.8-9.5s0.5-3.8,1-5.2c1.4-2.4,68.9-42.8,68.9-42.8s-64.6-38.5-65.6-39.5
          c-2.9-2.4-4.3-5.2-4.3-8.1c0-2.4,1-5.7,3.3-9.5c3.8-6.7,7.6-10,11.4-10C673.4,176.3,764.2,229.5,764.2,229.5z"/>
      </g>
    </g>
  </g>
</g>
</svg>
