<svg version="1.1" id="Layer_1" xmlns="http://www.w3.org/2000/svg" xmlns:xlink="http://www.w3.org/1999/xlink" x="0px" y="0px"
   viewBox="0 0 78.1 34.8" enable-background="new 0 0 78.1 34.8" xml:space="preserve">
<g>
  <path fill="#FFFFFF" d="M1.8,21.2c-1.1-0.5-1.6-1.5-1.6-2.8c0-1.4,0.5-2.3,1.6-2.9c9.4-5.6,18.4-10.9,18.7-11
    c0.3-0.1,0.7-0.2,1.1-0.2c0.7,0,1.5,0.7,2.3,2c0.5,0.8,0.8,1.5,0.8,1.9c0,0.4-0.1,0.8-0.3,1.1c-0.2,0.4-14.1,8.8-14.4,9.1
    c0,0,13.6,8.1,13.8,8.3c0.6,0.5,0.9,1,0.9,1.6c0,0.5-0.2,1.2-0.7,2c-0.5,0.8-0.9,1.3-1.3,1.7s-0.8,0.5-1.2,0.5
    C21,32.4,1.8,21.2,1.8,21.2z"/>
  <path fill="#FFFFFF" d="M37.3,34.4c-0.3,0.2-0.7,0.3-1.1,0.3c-0.5,0-1.1-0.2-2.1-0.6s-1.5-0.8-1.8-1.1c-0.3-0.3-0.5-0.7-0.5-1
    c0-0.4,14.7-31.3,15.1-31.5c0.2-0.1,0.5-0.2,1-0.2S49,0.6,49.9,1c1.5,0.7,2.2,1.5,2.2,2.3C52.2,3.7,37.6,34.2,37.3,34.4z"/>
  <path fill="#FFFFFF" d="M76.2,15.5c1.1,0.5,1.6,1.5,1.6,2.9c0,1.4-0.5,2.3-1.6,2.8L58.7,31.6c-1.4,0.9-2.5,1-3.4,0.3
    c-0.4-0.3-0.8-0.8-1.2-1.5c-0.5-0.9-0.8-1.6-0.8-2s0.1-0.8,0.2-1.1c0.3-0.5,14.5-9,14.5-9s-13.6-8.1-13.8-8.3
    c-0.6-0.5-0.9-1.1-0.9-1.7c0-0.5,0.2-1.2,0.7-2c0.8-1.4,1.6-2.1,2.4-2.1C57.1,4.3,76.2,15.5,76.2,15.5z"/>
</g>
</svg>
