<?xml version="1.0" encoding="UTF-8" standalone="no"?>
<svg
   xmlns:dc="http://purl.org/dc/elements/1.1/"
   xmlns:cc="http://creativecommons.org/ns#"
   xmlns:rdf="http://www.w3.org/1999/02/22-rdf-syntax-ns#"
   xmlns:svg="http://www.w3.org/2000/svg"
   xmlns="http://www.w3.org/2000/svg"
   xmlns:sodipodi="http://sodipodi.sourceforge.net/DTD/sodipodi-0.dtd"
   xmlns:inkscape="http://www.inkscape.org/namespaces/inkscape"
   version="1.1"
   id="Layer_1"
   x="0px"
   y="0px"
   viewBox="0 0 60 40"
   enable-background="new 0 0 78.1 34.8"
   xml:space="preserve"
   inkscape:version="0.48.4 r9939"
   width="100%"
   height="100%"
   sodipodi:docname="3.svg"><metadata
     id="metadata15"><rdf:RDF><cc:Work
         rdf:about=""><dc:format>image/svg+xml</dc:format><dc:type
           rdf:resource="http://purl.org/dc/dcmitype/StillImage" /></cc:Work></rdf:RDF></metadata><defs
     id="defs13" /><sodipodi:namedview
     pagecolor="#ffffff"
     bordercolor="#666666"
     borderopacity="1"
     objecttolerance="10"
     gridtolerance="10"
     guidetolerance="10"
     inkscape:pageopacity="0"
     inkscape:pageshadow="2"
     inkscape:window-width="1317"
     inkscape:window-height="744"
     id="namedview11"
     showgrid="false"
     fit-margin-top="0"
     fit-margin-left="0"
     fit-margin-right="0"
     fit-margin-bottom="0"
     inkscape:zoom="3.7387964"
     inkscape:cx="-1.8284248"
     inkscape:cy="13.298969"
     inkscape:window-x="49"
     inkscape:window-y="24"
     inkscape:window-maximized="1"
     inkscape:current-layer="Layer_1" /><g
     id="g3"
     style="fill:#ffffff"
     transform="matrix(0.77319589,0,0,0.77319589,-0.15463927,6.4690719)"><path
       d="M 1.8,21.2 C 0.7,20.7 0.2,19.7 0.2,18.4 0.2,17 0.7,16.1 1.8,15.5 11.2,9.9 20.2,4.6 20.5,4.5 c 0.3,-0.1 0.7,-0.2 1.1,-0.2 0.7,0 1.5,0.7 2.3,2 0.5,0.8 0.8,1.5 0.8,1.9 0,0.4 -0.1,0.8 -0.3,1.1 -0.2,0.4 -14.1,8.8 -14.4,9.1 0,0 13.6,8.1 13.8,8.3 0.6,0.5 0.9,1 0.9,1.6 0,0.5 -0.2,1.2 -0.7,2 -0.5,0.8 -0.9,1.3 -1.3,1.7 -0.4,0.4 -0.8,0.5 -1.2,0.5 C 21,32.4 1.8,21.2 1.8,21.2 z"
       id="path5"
       style="fill:#ffffff"
       inkscape:connector-curvature="0" /><path
       d="m 37.3,34.4 c -0.3,0.2 -0.7,0.3 -1.1,0.3 -0.5,0 -1.1,-0.2 -2.1,-0.6 -1,-0.4 -1.5,-0.8 -1.8,-1.1 -0.3,-0.3 -0.5,-0.7 -0.5,-1 0,-0.4 14.7,-31.3 15.1,-31.5 0.2,-0.1 0.5,-0.2 1,-0.2 0.5,0 1.1,0.3 2,0.7 1.5,0.7 2.2,1.5 2.2,2.3 0.1,0.4 -14.5,30.9 -14.8,31.1 z"
       id="path7"
       style="fill:#ffffff"
       inkscape:connector-curvature="0" /><path
       d="m 76.2,15.5 c 1.1,0.5 1.6,1.5 1.6,2.9 0,1.4 -0.5,2.3 -1.6,2.8 L 58.7,31.6 c -1.4,0.9 -2.5,1 -3.4,0.3 -0.4,-0.3 -0.8,-0.8 -1.2,-1.5 -0.5,-0.9 -0.8,-1.6 -0.8,-2 0,-0.4 0.1,-0.8 0.2,-1.1 0.3,-0.5 14.5,-9 14.5,-9 0,0 -13.6,-8.1 -13.8,-8.3 -0.6,-0.5 -0.9,-1.1 -0.9,-1.7 0,-0.5 0.2,-1.2 0.7,-2 0.8,-1.4 1.6,-2.1 2.4,-2.1 0.7,0.1 19.8,11.3 19.8,11.3 z"
       id="path9"
       style="fill:#ffffff"
       inkscape:connector-curvature="0" /></g></svg>