<svg version="1.1" id="Layer_1" xmlns="http://www.w3.org/2000/svg" xmlns:xlink="http://www.w3.org/1999/xlink" x="0px" y="0px"
   viewBox="443.1 243.1 75 67.5" enable-background="new 443.1 243.1 75 67.5" xml:space="preserve">
<path fill="#FFFFFF" d="M505.9,268.4l-8.9-13.7c-0.3-0.4-0.7-0.7-1.3-0.7h-32.9c-0.5,0-1,0.3-1.3,0.7c0,0-6.8,10-8.9,13.7
  c0,0-1.6,1.8,0.1,3.7c8.1,10.3,18,21.6,24.4,29.4c2.6,2.5,3.9,0.4,4.3,0c7.2-7.1,24.3-29.4,24.3-29.4
  C507.1,270.7,506.3,269,505.9,268.4z M482.5,257l4.7,12h-15.8l4.7-12H482.5z M463.3,257.9c0.2-0.4,0.5-0.8,1.5-0.8
  c2,0,8.2,0.1,8.2,0.1l-4.7,11.9h-11.7C456.6,269,461.5,260.8,463.3,257.9z M457.1,272h11.1l7.3,22.9L457.1,272z M478.6,294.9
  c-0.1-0.6-7.3-22.9-7.3-22.9h16.1c0,0-7.3,22.6-7.3,22.9C479.7,296.5,478.9,296.4,478.6,294.9z M483.1,294.9l7.3-22.9h11.1
  L483.1,294.9z M490.4,269l-4.7-11.9c0,0,6.1-0.1,8.2-0.1c1,0,1.3,0.5,1.5,0.9c1.8,2.9,6.7,11.1,6.7,11.1H490.4z"/>
</svg>
