<svg version="1.1" id="Layer_1" xmlns="http://www.w3.org/2000/svg" xmlns:xlink="http://www.w3.org/1999/xlink" x="0px" y="0px"
   viewBox="443.1 243.1 75 67.5" enable-background="new 443.1 243.1 75 67.5" xml:space="preserve">
<g>
  <path fill="#FFFFFF" d="M468.8,296.1c0,1.3-1,2.3-2.3,2.3h-9.3c-1.3,0-2.3-1-2.3-2.3v-7.3c0-1.3,1-2.3,2.3-2.3h9.3
    c1.3,0,2.3,1,2.3,2.3V296.1z"/>
  <path fill="#FFFFFF" d="M468.8,280.4c0,1.3-1,2.3-2.3,2.3h-9.3c-1.3,0-2.3-1-2.3-2.3v-7.3c0-1.3,1-2.3,2.3-2.3h9.3
    c1.3,0,2.3,1,2.3,2.3V280.4z"/>
  <path fill="#FFFFFF" d="M485.2,296.1c0,1.3-1,2.3-2.3,2.3h-9.3c-1.3,0-2.3-1-2.3-2.3v-7.3c0-1.3,1-2.3,2.3-2.3h9.3
    c1.3,0,2.3,1,2.3,2.3V296.1z"/>
  <path fill="#FFFFFF" d="M485.2,280.4c0,1.3-1,2.3-2.3,2.3h-9.3c-1.3,0-2.3-1-2.3-2.3v-7.3c0-1.3,1-2.3,2.3-2.3h9.3
    c1.3,0,2.3,1,2.3,2.3V280.4z"/>
  <path fill="#FFFFFF" d="M501.5,296.1c0,1.3-1,2.3-2.3,2.3h-9.3c-1.3,0-2.3-1-2.3-2.3v-7.3c0-1.3,1-2.3,2.3-2.3h9.3
    c1.3,0,2.3,1,2.3,2.3V296.1z"/>
  <path fill="#FFFFFF" d="M468.8,264.9c0,1.3-1,2.3-2.3,2.3h-9.3c-1.3,0-2.3-1-2.3-2.3v-7.3c0-1.3,1-2.3,2.3-2.3h9.3
    c1.3,0,2.3,1,2.3,2.3V264.9z"/>
  <path fill="#FFFFFF" d="M506.1,274.7l-3.6-6.4c-0.6-1.1-2.1-1.5-3.2-0.9l-8.1,4.6c-1.1,0.6-1.5,2.1-0.9,3.2l3.6,6.4
    c0.6,1.1,2.1,1.5,3.2,0.9l8.1-4.6C506.3,277.3,506.7,275.9,506.1,274.7z M502.7,276.9l-5.3,3c-0.7,0.4-1.7,0.1-2.1-0.6l-2.3-4.2
    c-0.4-0.7-0.1-1.7,0.6-2.1l5.3-3c0.7-0.4,1.7-0.1,2.1,0.6l2.3,4.2C503.7,275.6,503.4,276.5,502.7,276.9z"/>
</g>
</svg>
