<svg version="1.1" id="Layer_1" xmlns="http://www.w3.org/2000/svg" xmlns:xlink="http://www.w3.org/1999/xlink"
  x="0px" y="0px"
   viewBox="443.1 243.1 107.6 67.5" enable-background="new 443.1 243.1 107.6 67.5" xml:space="preserve">
<path fill="#FFFFFF" d="M527.6,275.1c2.7-17.9-13-30.2-28.4-30.2c-15.4,0-26,9.3-27,24.9c-19.7,0.9-29.9,34.3,0,39h14
  c1.5,0,2.8-1.3,2.8-2.8c0-1.5-1.3-2.8-2.8-2.8l-13.6,0c-22.1-0.9-15.6-31.3,2.8-28.2c1.4,0.2,2.4-1.4,2.4-2.8
  c-0.2-17,9.1-21.3,21.4-21.7c14-0.5,25.6,8.5,22.2,27.1c-0.2,0.9-0.6,3.7,3.1,3.3c0.1,0,1.8-0.2,3.8-0.2c6.1,0,11.1,5,11.1,11.2
  c0,6.2-5,11.2-11.2,11.2h-19.6c-7.8,0-8.4-4.7-8.4-5.6v-17.7l6.6,5.8c1.1,1.1,2.9,1.1,4,0c1.1-1.1,1.1-2.9,0-4l-11.3-11.3
  c-0.5-0.5-1.3-0.8-2-0.8l-0.1,0c-0.8,0-1.5,0.3-2,0.9L484,281.7c-1.1,1.1-1.1,2.9,0,4c1.1,1.1,2.9,1.1,4,0l6.6-5.7v17.6
  c0,3.9,2.9,11.2,14,11.2h19.6c9.3,0,16.8-7.5,16.8-16.8C544.9,275.2,527.6,275.1,527.6,275.1z"/>
</svg>
