<svg xmlns="http://www.w3.org/2000/svg" xmlns:xlink="http://www.w3.org/1999/xlink" version="1.1" x="0px" y="0px" viewBox="0 0 100 125" enable-background="new 0 0 100 100" xml:space="preserve"><path d="M29.935,63.763c7.589,0,13.763-6.174,13.763-13.762c0-3.477,2.827-6.305,6.303-6.305c3.478,0,6.304,2.828,6.304,6.305  c0,7.588,6.174,13.762,13.764,13.762c7.324,0,13.328-5.752,13.738-12.976h2.539v-1.573h-2.539  c-0.41-7.224-6.414-12.977-13.738-12.977c-6.25,0-11.535,4.188-13.207,9.903c-1.354-2.395-3.92-4.018-6.86-4.018  s-5.505,1.623-6.858,4.018c-1.672-5.715-6.959-9.903-13.207-9.903c-7.324,0-13.33,5.753-13.738,12.977h-2.541v1.573h2.541  C16.604,58.011,22.61,63.763,29.935,63.763z M70.067,37.811c6.721,0,12.188,5.468,12.188,12.19c0,6.721-5.467,12.188-12.188,12.188  s-12.189-5.468-12.189-12.188C57.878,43.278,63.347,37.811,70.067,37.811z M29.935,37.811c6.721,0,12.189,5.468,12.189,12.19  c0,6.721-5.469,12.188-12.189,12.188s-12.189-5.468-12.189-12.188C17.745,43.278,23.214,37.811,29.935,37.811z"/></svg>
