<svg version="1.1" id="Layer_1" xmlns="http://www.w3.org/2000/svg" xmlns:xlink="http://www.w3.org/1999/xlink" x="0px" y="0px"
	 viewBox="0 0 960 560" style="enable-background:new 0 0 960 560;" xml:space="preserve">
<style type="text/css">
	.st0{stroke:#000000;stroke-width:0.8733;}
	.st1{fill:#07963D;}
</style>
<g id="XMLID_1747_">
	<g id="XMLID_1670_">
		<path id="XMLID_1744_" d="M274.7,383.7v-5.3h3.5v5.3H274.7z M274.7,481v-90.2h3.5V481H274.7z"/>
		<path id="XMLID_1742_" d="M297.7,358.8h3.5v108.9c0,3.4,1,6,3.1,8c2.1,2,4.9,3,8.3,3c1.3,0,2.8-0.1,4.6-0.4c1.8-0.3,3.4-0.7,5-1.1
			l1.2,2.8c-1.6,0.6-3.6,1.1-6,1.5c-2.4,0.4-4.4,0.6-6,0.6c-4.1,0-7.4-1.3-9.9-3.9c-2.6-2.6-3.8-6.1-3.8-10.3V358.8z"/>
		<g id="XMLID_1739_">
			<path id="XMLID_1740_" d="M205.6,482.3l-52-119.1l-51.8,119.1H98l53.7-123.4h3.8l53.7,123.4H205.6z"/>
		</g>
		<g id="XMLID_1736_">
			<path id="XMLID_1737_" d="M259.5,477.3c-1.7,1.2-3.3,2-4.8,2.6c-1.5,0.6-3.2,1.1-5.1,1.7c-2,0.5-4.2,0.8-6.6,0.8
				c-4.2,0-7.9-1.3-11-3.8c-3.1-2.6-4.7-5.9-4.7-10.1v-74h-9.6v-3.5h9.6v-31.6h3.5v31.6h34.6v3.5h-34.6v74c0.2,3.4,1.6,6,4,7.8
				c2.4,1.8,5.2,2.7,8.2,2.7c2,0,3.8-0.2,5.6-0.6c1.7-0.4,3.3-0.9,4.6-1.4c1.3-0.5,2.4-1,3.1-1.5c0.8-0.5,1.2-0.8,1.3-0.9
				L259.5,477.3z"/>
		</g>
		<g id="XMLID_1731_">
			<path id="XMLID_1733_" d="M354.5,404.7c-18.3,0-33.2,17.4-33.2,38.9s14.9,38.9,33.2,38.9c18.3,0,33.2-17.4,33.2-38.9
				S372.8,404.7,354.5,404.7z M354.5,478.6c-16.5,0-29.9-15.7-29.9-35c0-19.3,13.4-35,29.9-35c16.5,0,29.9,15.7,29.9,35
				C384.4,462.9,371,478.6,354.5,478.6z"/>
			<rect id="XMLID_1732_" x="385" y="405" width="3.5" height="76.1"/>
		</g>
		<path id="XMLID_1728_" d="M711.1,395.3V390h3.5v5.3H711.1z M711.1,481v-78.6h3.5V481H711.1z"/>
		<path id="XMLID_1726_" d="M610.7,482.6c-11.7,0-21.2-4.1-28.6-12.2l2.2-1.9c3.9,3.8,7.9,6.6,12.1,8.4c4.2,1.8,9,2.7,14.4,2.7
			c7.4,0,13.5-1.6,18.1-4.8c4.6-3.2,6.9-7.7,6.9-13.5c0-2.7-0.6-4.9-1.7-6.7c-1.2-1.8-2.8-3.3-5.1-4.6c-2.2-1.3-5-2.4-8.2-3.3
			c-3.3-0.9-7-1.9-11.1-2.8c-4.1-1-7.6-1.9-10.6-2.7c-3-0.8-5.5-1.9-7.4-3.1c-2-1.3-3.5-2.8-4.5-4.7c-1-1.9-1.5-4.3-1.5-7.3
			c0-3.8,0.7-7,2.2-9.6c1.4-2.7,3.4-4.8,5.8-6.6c2.4-1.7,5.2-3,8.4-3.8c3.2-0.8,6.6-1.2,10.1-1.2c6.1,0,11.3,1,15.5,3.1
			c4.3,2.1,7.3,4.7,8.9,7.7l-2.6,1.2c-1.8-3-4.8-5.3-9-6.8c-4.1-1.5-8.6-2.3-13.5-2.3c-3.1,0-6,0.3-8.8,1c-2.8,0.7-5.3,1.7-7.4,3.2
			c-2.1,1.4-3.8,3.3-5,5.6c-1.2,2.3-1.8,5-1.8,8.2c0,2.5,0.4,4.6,1.2,6.1c0.8,1.6,2.1,2.9,3.8,4c1.7,1.1,4,2,6.7,2.7
			c2.7,0.8,5.9,1.6,9.5,2.5c4.4,1.1,8.5,2.1,12.1,3c3.6,1,6.7,2.2,9.1,3.6c2.5,1.4,4.4,3.2,5.7,5.3c1.3,2.1,2,4.7,2,8
			c0,3.3-0.7,6.2-2,8.9c-1.4,2.7-3.2,4.9-5.6,6.8c-2.4,1.9-5.4,3.3-8.8,4.3C618.6,482.1,614.8,482.6,610.7,482.6z"/>
		<path id="XMLID_1724_" d="M674.1,482.6c-11.7,0-21.2-4.1-28.6-12.2l2.2-1.9c3.9,3.8,7.9,6.6,12.1,8.4c4.2,1.8,9,2.7,14.4,2.7
			c7.4,0,13.5-1.6,18.1-4.8c4.6-3.2,6.9-7.7,6.9-13.5c0-2.7-0.6-4.9-1.7-6.7c-1.2-1.8-2.8-3.3-5.1-4.6c-2.2-1.3-5-2.4-8.2-3.3
			c-3.3-0.9-7-1.9-11.1-2.8c-4.1-1-7.6-1.9-10.6-2.7c-3-0.8-5.5-1.9-7.4-3.1c-2-1.3-3.5-2.8-4.5-4.7c-1-1.9-1.5-4.3-1.5-7.3
			c0-3.8,0.7-7,2.2-9.6c1.4-2.7,3.4-4.8,5.8-6.6c2.4-1.7,5.2-3,8.4-3.8c3.2-0.8,6.6-1.2,10.1-1.2c6.1,0,11.3,1,15.5,3.1
			c4.3,2.1,7.3,4.7,8.9,7.7l-2.6,1.2c-1.8-3-4.8-5.3-9-6.8c-4.1-1.5-8.6-2.3-13.5-2.3c-3.1,0-6,0.3-8.8,1c-2.8,0.7-5.3,1.7-7.4,3.2
			c-2.1,1.4-3.8,3.3-5,5.6c-1.2,2.3-1.8,5-1.8,8.2c0,2.5,0.4,4.6,1.2,6.1c0.8,1.6,2.1,2.9,3.8,4c1.7,1.1,4,2,6.7,2.7
			c2.7,0.8,5.9,1.6,9.5,2.5c4.4,1.1,8.5,2.1,12.1,3c3.6,1,6.7,2.2,9.1,3.6c2.5,1.4,4.4,3.2,5.7,5.3c1.4,2.1,2,4.7,2,8
			c0,3.3-0.7,6.2-2,8.9c-1.4,2.7-3.2,4.9-5.6,6.8c-2.4,1.9-5.4,3.3-8.8,4.3C682.1,482.1,678.3,482.6,674.1,482.6z"/>
		<path id="XMLID_1722_" d="M788.1,480.9h-2.9v-41.6c0-11-1.5-18.9-4.5-23.9c-3-5-7.9-7.5-14.6-7.5c-3.7,0-7.2,0.6-10.7,1.9
			c-3.5,1.3-6.8,3.1-9.7,5.4c-3,2.3-5.6,5-7.8,8.2c-2.2,3.2-3.8,6.6-4.9,10.2v47.3H730v-74.8h2.9v19.3c1.5-3,3.5-5.7,5.9-8.3
			c2.4-2.5,5-4.7,7.9-6.5c2.9-1.8,6-3.2,9.2-4.2c3.3-1,6.6-1.5,9.9-1.5c7.7,0,13.3,2.8,16.9,8.3c3.6,5.5,5.3,14.2,5.3,26V480.9z"/>
		<g id="XMLID_1717_">
			<path id="XMLID_1719_" d="M535.7,404.7c-18.3,0-33.2,17.4-33.2,38.9s14.9,38.9,33.2,38.9c18.3,0,33.2-17.4,33.2-38.9
				S554.1,404.7,535.7,404.7z M535.7,478.6c-16.5,0-29.9-15.7-29.9-35c0-19.3,13.4-35,29.9-35c16.5,0,29.9,15.7,29.9,35
				C565.6,462.9,552.2,478.6,535.7,478.6z"/>
			<rect id="XMLID_1718_" x="566.2" y="405" width="3.5" height="76.1"/>
		</g>
		<g id="XMLID_1712_">
			<path id="XMLID_1714_" d="M828,404.7c-18.3,0-33.2,17.4-33.2,38.9s14.9,38.9,33.2,38.9c18.3,0,33.2-17.4,33.2-38.9
				S846.3,404.7,828,404.7z M828,478.6c-16.5,0-29.9-15.7-29.9-35c0-19.3,13.4-35,29.9-35c16.5,0,29.9,15.7,29.9,35
				C857.9,462.9,844.5,478.6,828,478.6z"/>
			<rect id="XMLID_1713_" x="858.5" y="405" width="3.5" height="76.1"/>
		</g>
		<rect id="XMLID_1711_" x="455.7" y="358.8" width="3.5" height="122.3"/>
		<rect id="XMLID_1710_" x="149.6" y="446.4" width="64.4" height="3.5"/>
		<path id="XMLID_1707_" d="M274.7,383.7v-5.3h3.5v5.3H274.7z M274.7,481v-90.2h3.5V481H274.7z"/>
		<path id="XMLID_1705_" d="M297.7,358.8h3.5v108.9c0,3.4,1,6,3.1,8c2.1,2,4.9,3,8.3,3c1.3,0,2.8-0.1,4.6-0.4c1.8-0.3,3.4-0.7,5-1.1
			l1.2,2.8c-1.6,0.6-3.6,1.1-6,1.5c-2.4,0.4-4.4,0.6-6,0.6c-4.1,0-7.4-1.3-9.9-3.9c-2.6-2.6-3.8-6.1-3.8-10.3V358.8z"/>
		<g id="XMLID_1702_">
			<path id="XMLID_1703_" d="M205.6,482.3l-52-119.1l-51.8,119.1H98l53.7-123.4h3.8l53.7,123.4H205.6z"/>
		</g>
		<rect id="XMLID_1701_" x="433.7" y="415.8" width="64.4" height="3.5"/>
		<g id="XMLID_1698_">
			<path id="XMLID_1699_" d="M259.5,477.3c-1.7,1.2-3.3,2-4.8,2.6c-1.5,0.6-3.2,1.1-5.1,1.7c-2,0.5-4.2,0.8-6.6,0.8
				c-4.2,0-7.9-1.3-11-3.8c-3.1-2.6-4.7-5.9-4.7-10.1v-74h-9.6v-3.5h9.6v-31.6h3.5v31.6h34.6v3.5h-34.6v74c0.2,3.4,1.6,6,4,7.8
				c2.4,1.8,5.2,2.7,8.2,2.7c2,0,3.8-0.2,5.6-0.6c1.7-0.4,3.3-0.9,4.6-1.4c1.3-0.5,2.4-1,3.1-1.5c0.8-0.5,1.2-0.8,1.3-0.9
				L259.5,477.3z"/>
		</g>
		<g id="XMLID_1693_">
			<path id="XMLID_1695_" d="M354.5,404.7c-18.3,0-33.2,17.4-33.2,38.9s14.9,38.9,33.2,38.9c18.3,0,33.2-17.4,33.2-38.9
				S372.8,404.7,354.5,404.7z M354.5,478.6c-16.5,0-29.9-15.7-29.9-35c0-19.3,13.4-35,29.9-35c16.5,0,29.9,15.7,29.9,35
				C384.4,462.9,371,478.6,354.5,478.6z"/>
			<rect id="XMLID_1694_" x="385" y="405" width="3.5" height="76.1"/>
		</g>
		<path id="XMLID_1690_" d="M711.1,395.3V390h3.5v5.3H711.1z M711.1,481v-78.6h3.5V481H711.1z"/>
		<path id="XMLID_1688_" class="st0" d="M610.7,482.6c-11.7,0-21.2-4.1-28.6-12.2l2.2-1.9c3.9,3.8,7.9,6.6,12.1,8.4
			c4.2,1.8,9,2.7,14.4,2.7c7.4,0,13.5-1.6,18.1-4.8c4.6-3.2,6.9-7.7,6.9-13.5c0-2.7-0.6-4.9-1.7-6.7c-1.2-1.8-2.8-3.3-5.1-4.6
			c-2.2-1.3-5-2.4-8.2-3.3c-3.3-0.9-7-1.9-11.1-2.8c-4.1-1-7.6-1.9-10.6-2.7c-3-0.8-5.5-1.9-7.4-3.1c-2-1.3-3.5-2.8-4.5-4.7
			c-1-1.9-1.5-4.3-1.5-7.3c0-3.8,0.7-7,2.2-9.6c1.4-2.7,3.4-4.8,5.8-6.6c2.4-1.7,5.2-3,8.4-3.8c3.2-0.8,6.6-1.2,10.1-1.2
			c6.1,0,11.3,1,15.5,3.1c4.3,2.1,7.3,4.7,8.9,7.7l-2.6,1.2c-1.8-3-4.8-5.3-9-6.8c-4.1-1.5-8.6-2.3-13.5-2.3c-3.1,0-6,0.3-8.8,1
			c-2.8,0.7-5.3,1.7-7.4,3.2c-2.1,1.4-3.8,3.3-5,5.6c-1.2,2.3-1.8,5-1.8,8.2c0,2.5,0.4,4.6,1.2,6.1c0.8,1.6,2.1,2.9,3.8,4
			c1.7,1.1,4,2,6.7,2.7c2.7,0.8,5.9,1.6,9.5,2.5c4.4,1.1,8.5,2.1,12.1,3c3.6,1,6.7,2.2,9.1,3.6c2.5,1.4,4.4,3.2,5.7,5.3
			c1.3,2.1,2,4.7,2,8c0,3.3-0.7,6.2-2,8.9c-1.4,2.7-3.2,4.9-5.6,6.8c-2.4,1.9-5.4,3.3-8.8,4.3C618.6,482.1,614.8,482.6,610.7,482.6z
			"/>
		<path id="XMLID_1686_" class="st0" d="M674.1,482.6c-11.7,0-21.2-4.1-28.6-12.2l2.2-1.9c3.9,3.8,7.9,6.6,12.1,8.4
			c4.2,1.8,9,2.7,14.4,2.7c7.4,0,13.5-1.6,18.1-4.8c4.6-3.2,6.9-7.7,6.9-13.5c0-2.7-0.6-4.9-1.7-6.7c-1.2-1.8-2.8-3.3-5.1-4.6
			c-2.2-1.3-5-2.4-8.2-3.3c-3.3-0.9-7-1.9-11.1-2.8c-4.1-1-7.6-1.9-10.6-2.7c-3-0.8-5.5-1.9-7.4-3.1c-2-1.3-3.5-2.8-4.5-4.7
			c-1-1.9-1.5-4.3-1.5-7.3c0-3.8,0.7-7,2.2-9.6c1.4-2.7,3.4-4.8,5.8-6.6c2.4-1.7,5.2-3,8.4-3.8c3.2-0.8,6.6-1.2,10.1-1.2
			c6.1,0,11.3,1,15.5,3.1c4.3,2.1,7.3,4.7,8.9,7.7l-2.6,1.2c-1.8-3-4.8-5.3-9-6.8c-4.1-1.5-8.6-2.3-13.5-2.3c-3.1,0-6,0.3-8.8,1
			c-2.8,0.7-5.3,1.7-7.4,3.2c-2.1,1.4-3.8,3.3-5,5.6c-1.2,2.3-1.8,5-1.8,8.2c0,2.5,0.4,4.6,1.2,6.1c0.8,1.6,2.1,2.9,3.8,4
			c1.7,1.1,4,2,6.7,2.7c2.7,0.8,5.9,1.6,9.5,2.5c4.4,1.1,8.5,2.1,12.1,3c3.6,1,6.7,2.2,9.1,3.6c2.5,1.4,4.4,3.2,5.7,5.3
			c1.4,2.1,2,4.7,2,8c0,3.3-0.7,6.2-2,8.9c-1.4,2.7-3.2,4.9-5.6,6.8c-2.4,1.9-5.4,3.3-8.8,4.3C682.1,482.1,678.3,482.6,674.1,482.6z
			"/>
		<path id="XMLID_1684_" class="st0" d="M788.1,480.9h-2.9v-41.6c0-11-1.5-18.9-4.5-23.9c-3-5-7.9-7.5-14.6-7.5
			c-3.7,0-7.2,0.6-10.7,1.9c-3.5,1.3-6.8,3.1-9.7,5.4c-3,2.3-5.6,5-7.8,8.2c-2.2,3.2-3.8,6.6-4.9,10.2v47.3H730v-74.8h2.9v19.3
			c1.5-3,3.5-5.7,5.9-8.3c2.4-2.5,5-4.7,7.9-6.5c2.9-1.8,6-3.2,9.2-4.2c3.3-1,6.6-1.5,9.9-1.5c7.7,0,13.3,2.8,16.9,8.3
			c3.6,5.5,5.3,14.2,5.3,26V480.9z"/>
		<g id="XMLID_1679_">
			<path id="XMLID_1681_" d="M535.7,404.7c-18.3,0-33.2,17.4-33.2,38.9s14.9,38.9,33.2,38.9c18.3,0,33.2-17.4,33.2-38.9
				S554.1,404.7,535.7,404.7z M535.7,478.6c-16.5,0-29.9-15.7-29.9-35c0-19.3,13.4-35,29.9-35c16.5,0,29.9,15.7,29.9,35
				C565.6,462.9,552.2,478.6,535.7,478.6z"/>
			<rect id="XMLID_1680_" x="566.2" y="405" width="3.5" height="76.1"/>
		</g>
		<g id="XMLID_1674_">
			<path id="XMLID_1676_" d="M828,404.7c-18.3,0-33.2,17.4-33.2,38.9s14.9,38.9,33.2,38.9c18.3,0,33.2-17.4,33.2-38.9
				S846.3,404.7,828,404.7z M828,478.6c-16.5,0-29.9-15.7-29.9-35c0-19.3,13.4-35,29.9-35c16.5,0,29.9,15.7,29.9,35
				C857.9,462.9,844.5,478.6,828,478.6z"/>
			<rect id="XMLID_1675_" x="858.5" y="405" width="3.5" height="76.1"/>
		</g>
		<rect id="XMLID_1673_" x="455.7" y="358.8" width="3.5" height="122.3"/>
		<rect id="XMLID_1672_" x="149.6" y="446.4" width="64.4" height="3.5"/>
		<rect id="XMLID_1671_" x="433.7" y="357.7" width="131.7" height="3.5"/>
	</g>
	<g id="XMLID_1661_">
		<g id="XMLID_1667_">
			<path id="XMLID_1668_" class="st1" d="M550.5,290.2L460.8,84.7l-89.4,205.4h-6.6l92.7-212.9h6.6l92.7,212.9H550.5z"/>
		</g>
		<rect id="XMLID_1666_" x="453.7" y="228.2" class="st1" width="111.1" height="6"/>
		<g id="XMLID_1663_">
			<path id="XMLID_1664_" d="M550.5,290.2L460.8,84.7l-89.4,205.4h-6.6l92.7-212.9h6.6l92.7,212.9H550.5z"/>
		</g>
		<rect id="XMLID_1662_" x="453.7" y="228.2" class="st1" width="141.4" height="6"/>
	</g>
</g>
</svg>
