<?xml version="1.0" encoding="UTF-8" standalone="no"?>
<!DOCTYPE svg PUBLIC "-//W3C//DTD SVG 1.1//EN" "http://www.w3.org/Graphics/SVG/1.1/DTD/svg11.dtd">
<svg version="1.1" xmlns="http://www.w3.org/2000/svg" xmlns:xlink="http://www.w3.org/1999/xlink" preserveAspectRatio="xMidYMid meet" viewBox="64.33333333333333 183.8 513.3333333333333 274.2666666666667" width="509.33" height="270.27"><defs><path d="M183.13 389.13L183.13 385.6L185.47 385.6L185.47 389.13L183.13 389.13Z" id="chVoDCKHB"></path><path d="M200.8 372.53C200.8 416.09 200.8 440.29 200.8 445.13C200.8 447.4 201.47 449.13 202.87 450.47C204.27 451.8 206.13 452.47 208.4 452.47C209.27 452.47 210.27 452.4 211.47 452.2C212.67 452 213.73 451.73 214.8 451.47C214.88 451.65 215.52 453.15 215.6 453.33C214.53 453.73 213.2 454.07 211.6 454.33C210 454.6 208.67 454.73 207.6 454.73C204.87 454.73 202.67 453.87 201 452.13C199.27 450.4 198.47 448.07 198.47 445.27C198.47 440.42 198.47 416.17 198.47 372.53L200.8 372.53Z" id="d506yjWVXG"></path><path d="M102.4 375.47L67.87 454.87L65.33 454.87L101.13 372.6L103.67 372.6L139.47 454.87L137.07 454.87L102.4 375.47Z" id="c3a2qoZ3XB"></path><path d="M169.8 453.27C168.8 453.67 167.67 454 166.4 454.4C165.07 454.73 163.6 454.93 162 454.93C159.2 454.93 156.73 454.07 154.67 452.4C152.6 450.67 151.53 448.47 151.53 445.67C151.53 442.38 151.53 425.93 151.53 396.33L145.13 396.33L145.13 394L151.53 394L151.53 372.93L153.87 372.93L153.87 394L176.93 394L176.93 396.33L153.87 396.33C153.87 425.93 153.87 442.38 153.87 445.67C154 447.93 154.93 449.67 156.53 450.87C158.13 452.07 160 452.67 162 452.67C163.33 452.67 164.53 452.53 165.73 452.27C166.87 452 167.93 451.67 168.8 451.33C169.67 451 170.4 450.67 170.87 450.33C171.4 450 171.67 449.8 171.73 449.73C171.82 449.85 172.24 450.45 173 451.53C171.53 452.42 170.47 453 169.8 453.27Z" id="a8hBwWoZO"></path><path d="M238.74 403.29L239.92 403.47L241.07 403.73L242.21 404.06L243.32 404.45L244.41 404.92L245.46 405.44L246.49 406.03L247.49 406.67L248.46 407.37L249.39 408.13L250.29 408.95L251.15 409.81L251.98 410.73L252.76 411.69L253.49 412.69L254.19 413.75L254.84 414.84L255.44 415.97L255.99 417.14L256.49 418.35L256.94 419.59L257.34 420.87L257.67 422.17L257.96 423.5L258.18 424.86L258.34 426.24L258.43 427.64L258.47 429.07L258.43 430.49L258.34 431.89L258.18 433.28L257.96 434.63L257.67 435.96L257.34 437.27L256.94 438.54L256.49 439.78L255.99 440.99L255.44 442.16L254.84 443.29L254.19 444.39L253.49 445.44L252.76 446.45L251.98 447.41L251.15 448.32L250.29 449.19L249.39 450L248.46 450.76L247.49 451.46L246.49 452.11L245.46 452.69L244.41 453.22L243.32 453.68L242.21 454.07L241.07 454.4L239.92 454.66L238.74 454.85L237.55 454.96L236.33 455L235.12 454.96L233.93 454.85L232.75 454.66L231.59 454.4L230.46 454.07L229.35 453.68L228.26 453.22L227.2 452.69L226.17 452.11L225.17 451.46L224.21 450.76L223.27 450L222.37 449.19L221.51 448.32L220.69 447.41L219.91 446.45L219.17 445.44L218.48 444.39L217.83 443.29L217.23 442.16L216.67 440.99L216.17 439.78L215.73 438.54L215.33 437.27L214.99 435.96L214.71 434.63L214.49 433.28L214.33 431.89L214.23 430.49L214.2 429.07L214.23 427.64L214.33 426.24L214.49 424.86L214.71 423.5L214.99 422.17L215.33 420.87L215.73 419.59L216.17 418.35L216.67 417.14L217.23 415.97L217.83 414.84L218.48 413.75L219.17 412.69L219.91 411.69L220.69 410.73L221.51 409.81L222.37 408.95L223.27 408.13L224.21 407.37L225.17 406.67L226.17 406.03L227.2 405.44L228.26 404.92L229.35 404.45L230.46 404.06L231.59 403.73L232.75 403.47L233.93 403.29L235.12 403.17L236.33 403.13L237.55 403.17L238.74 403.29ZM233.93 405.9L232.75 406.11L231.6 406.4L230.48 406.76L229.38 407.2L228.31 407.7L227.28 408.28L226.28 408.92L225.31 409.63L224.38 410.4L223.49 411.23L222.65 412.11L221.85 413.05L221.09 414.04L220.38 415.08L219.73 416.17L219.12 417.3L218.57 418.47L218.08 419.68L217.65 420.93L217.28 422.22L216.97 423.53L216.72 424.88L216.54 426.25L216.44 427.65L216.4 429.07L216.44 430.49L216.54 431.88L216.72 433.26L216.97 434.6L217.28 435.92L217.65 437.2L218.08 438.45L218.57 439.66L219.12 440.83L219.73 441.97L220.38 443.05L221.09 444.09L221.85 445.08L222.65 446.02L223.49 446.91L224.38 447.73L225.31 448.5L226.28 449.21L227.28 449.85L228.31 450.43L229.38 450.94L230.48 451.37L231.6 451.74L232.75 452.02L233.93 452.23L235.12 452.36L236.33 452.4L237.55 452.36L238.74 452.23L239.91 452.02L241.06 451.74L242.19 451.37L243.29 450.94L244.35 450.43L245.39 449.85L246.39 449.21L247.36 448.5L248.28 447.73L249.17 446.91L250.02 446.02L250.82 445.08L251.58 444.09L252.28 443.05L252.94 441.97L253.54 440.83L254.09 439.66L254.58 438.45L255.02 437.2L255.39 435.92L255.7 434.6L255.95 433.26L256.12 431.88L256.23 430.49L256.27 429.07L256.23 427.65L256.12 426.25L255.95 424.88L255.7 423.53L255.39 422.22L255.02 420.93L254.58 419.68L254.09 418.47L253.54 417.3L252.94 416.17L252.28 415.08L251.58 414.04L250.82 413.05L250.02 412.11L249.17 411.23L248.28 410.4L247.36 409.63L246.39 408.92L245.39 408.28L244.35 407.7L243.29 407.2L242.19 406.76L241.06 406.4L239.91 406.11L238.74 405.9L237.55 405.78L236.33 405.73L235.12 405.78L233.93 405.9Z" id="c1ERKfF0l"></path><path d="M259 403.33C259 403.33 259 403.33 259 403.33C259 433.77 259 450.68 259 454.07C259 454.07 259 454.07 259 454.07C257.6 454.07 256.82 454.07 256.67 454.07C256.67 454.07 256.67 454.07 256.67 454.07C256.67 423.63 256.67 406.72 256.67 403.33C256.67 403.33 256.67 403.33 256.67 403.33C258.07 403.33 258.84 403.33 259 403.33Z" id="c5uKhtvQu"></path><path d="M474.07 396.87L474.07 393.33L476.4 393.33L476.4 396.87L474.07 396.87Z" id="ahB594Lu"></path><path d="M388.07 446.93C388.21 446.81 389.39 445.79 389.53 445.67C392.13 448.2 394.8 450.07 397.6 451.27C400.4 452.47 403.6 453.07 407.2 453.07C412.13 453.07 416.2 452 419.27 449.87C422.33 447.73 423.87 444.73 423.87 440.87C423.87 439.07 423.47 437.6 422.73 436.4C421.93 435.2 420.87 434.2 419.33 433.33C417.87 432.47 416 431.73 413.87 431.13C411.67 430.53 409.2 429.87 406.47 429.27C403.73 428.6 401.4 428 399.4 427.47C397.4 426.93 395.73 426.2 394.47 425.4C393.13 424.53 392.13 423.53 391.47 422.27C390.8 421 390.47 419.4 390.47 417.4C390.47 414.87 390.93 412.73 391.93 411C392.87 409.2 394.2 407.8 395.8 406.6C397.4 405.47 399.27 404.6 401.4 404.07C403.53 403.53 405.8 403.27 408.13 403.27C412.2 403.27 415.67 403.93 418.47 405.33C421.33 406.73 423.33 408.47 424.4 410.47C424.23 410.55 422.84 411.19 422.67 411.27C421.47 409.27 419.47 407.73 416.67 406.73C413.93 405.73 410.93 405.2 407.67 405.2C405.6 405.2 403.67 405.4 401.8 405.87C399.93 406.33 398.27 407 396.87 408C395.47 408.93 394.33 410.2 393.53 411.73C392.73 413.27 392.33 415.07 392.33 417.2C392.33 418.87 392.6 420.27 393.13 421.27C393.67 422.33 394.53 423.2 395.67 423.93C396.8 424.67 398.33 425.27 400.13 425.73C401.93 426.27 404.07 426.8 406.47 427.4C409.4 428.13 412.13 428.8 414.53 429.4C416.93 430.07 419 430.87 420.6 431.8C422.27 432.73 423.53 433.93 424.4 435.33C425.27 436.73 425.73 438.47 425.73 440.67C425.73 442.87 425.27 444.8 424.4 446.6C423.47 448.4 422.27 449.87 420.67 451.13C419.07 452.4 417.07 453.33 414.8 454C412.4 454.73 409.87 455.07 407.13 455.07C399.33 455.07 393 452.33 388.07 446.93Z" id="a2awuLgsdH"></path><path d="M430.33 446.93C430.48 446.81 431.65 445.79 431.8 445.67C434.4 448.2 437.07 450.07 439.87 451.27C442.67 452.47 445.87 453.07 449.47 453.07C454.4 453.07 458.47 452 461.53 449.87C464.6 447.73 466.13 444.73 466.13 440.87C466.13 439.07 465.73 437.6 465 436.4C464.2 435.2 463.13 434.2 461.6 433.33C460.13 432.47 458.27 431.73 456.13 431.13C453.93 430.53 451.47 429.87 448.73 429.27C446 428.6 443.67 428 441.67 427.47C439.67 426.93 438 426.2 436.73 425.4C435.4 424.53 434.4 423.53 433.73 422.27C433.07 421 432.73 419.4 432.73 417.4C432.73 414.87 433.2 412.73 434.2 411C435.13 409.2 436.47 407.8 438.07 406.6C439.67 405.47 441.53 404.6 443.67 404.07C445.8 403.53 448.07 403.27 450.4 403.27C454.47 403.27 457.93 403.93 460.73 405.33C463.6 406.73 465.6 408.47 466.67 410.47C466.49 410.55 465.11 411.19 464.93 411.27C463.73 409.27 461.73 407.73 458.93 406.73C456.2 405.73 453.2 405.2 449.93 405.2C447.87 405.2 445.93 405.4 444.07 405.87C442.2 406.33 440.53 407 439.13 408C437.73 408.93 436.6 410.2 435.8 411.73C435 413.27 434.6 415.07 434.6 417.2C434.6 418.87 434.87 420.27 435.4 421.27C435.93 422.33 436.8 423.2 437.93 423.93C439.07 424.67 440.6 425.27 442.4 425.73C444.2 426.27 446.33 426.8 448.73 427.4C451.67 428.13 454.4 428.8 456.8 429.4C459.2 430.07 461.27 430.87 462.87 431.8C464.53 432.73 465.8 433.93 466.67 435.33C467.6 436.73 468 438.47 468 440.67C468 442.87 467.53 444.8 466.67 446.6C465.73 448.4 464.53 449.87 462.93 451.13C461.33 452.4 459.33 453.33 457.07 454C454.73 454.73 452.2 455.07 449.4 455.07C441.6 455.07 435.27 452.33 430.33 446.93Z" id="b8aR2mX28"></path><path d="M523.47 453.93C523.47 437.29 523.47 428.05 523.47 426.2C523.47 418.87 522.47 413.6 520.47 410.27C518.47 406.93 515.2 405.27 510.73 405.27C508.27 405.27 505.93 405.67 503.6 406.53C501.27 407.4 499.07 408.6 497.13 410.13C495.13 411.67 493.4 413.47 491.93 415.6C490.47 417.73 489.4 420 488.67 422.4C488.67 424.5 488.67 435.01 488.67 453.93L486.67 453.93L486.67 404.07L488.6 404.07C488.6 411.79 488.6 416.08 488.6 416.93C489.6 414.93 490.93 413.13 492.53 411.4C494.13 409.73 495.87 408.27 497.8 407.07C499.73 405.87 501.8 404.93 503.93 404.27C506.13 403.6 508.33 403.27 510.53 403.27C515.67 403.27 519.4 405.13 521.8 408.8C524.2 412.47 525.33 418.27 525.33 426.13C525.33 427.99 525.33 437.25 525.33 453.93L523.47 453.93Z" id="a22dAYzOQ"></path><path d="M359.55 403.29L360.73 403.47L361.89 403.73L363.03 404.06L364.15 404.45L365.23 404.92L366.29 405.44L367.32 406.03L368.32 406.67L369.29 407.37L370.22 408.13L371.12 408.95L371.98 409.81L372.8 410.73L373.58 411.69L374.32 412.69L375.01 413.75L375.66 414.84L376.25 415.97L376.8 417.14L377.3 418.35L377.75 419.59L378.14 420.87L378.48 422.17L378.76 423.5L378.98 424.86L379.14 426.24L379.23 427.64L379.27 429.07L379.23 430.49L379.14 431.89L378.98 433.28L378.76 434.63L378.47 435.96L378.14 437.27L377.74 438.54L377.29 439.78L376.79 440.99L376.24 442.16L375.64 443.29L374.99 444.39L374.29 445.44L373.56 446.45L372.78 447.41L371.95 448.32L371.09 449.19L370.19 450L369.26 450.76L368.29 451.46L367.29 452.11L366.26 452.69L365.21 453.22L364.12 453.68L363.01 454.07L361.87 454.4L360.72 454.66L359.54 454.85L358.35 454.96L357.13 455L355.92 454.96L354.73 454.85L353.55 454.66L352.39 454.4L351.26 454.07L350.15 453.68L349.06 453.22L348 452.69L346.97 452.11L345.97 451.46L345.01 450.76L344.07 450L343.17 449.19L342.31 448.32L341.49 447.41L340.71 446.45L339.97 445.44L339.28 444.39L338.63 443.29L338.03 442.16L337.47 440.99L336.97 439.78L336.53 438.54L336.13 437.27L335.79 435.96L335.51 434.63L335.29 433.28L335.13 431.89L335.03 430.49L335 429.07L335.03 427.64L335.13 426.24L335.29 424.86L335.51 423.5L335.79 422.17L336.13 420.87L336.53 419.59L336.97 418.35L337.48 417.14L338.03 415.97L338.63 414.84L339.28 413.75L339.97 412.69L340.71 411.69L341.49 410.73L342.31 409.81L343.17 408.95L344.07 408.13L345.01 407.37L345.97 406.67L346.97 406.03L348 405.44L349.06 404.92L350.15 404.45L351.26 404.06L352.39 403.73L353.55 403.47L354.73 403.29L355.92 403.17L357.13 403.13L358.35 403.17L359.55 403.29ZM354.73 405.9L353.55 406.11L352.4 406.4L351.28 406.76L350.18 407.2L349.11 407.7L348.08 408.28L347.08 408.92L346.11 409.63L345.18 410.4L344.29 411.23L343.45 412.11L342.65 413.05L341.89 414.04L341.18 415.08L340.53 416.17L339.92 417.3L339.37 418.47L338.88 419.68L338.45 420.93L338.08 422.22L337.77 423.53L337.52 424.88L337.34 426.25L337.24 427.65L337.2 429.07L337.24 430.49L337.34 431.88L337.52 433.26L337.77 434.6L338.08 435.92L338.45 437.2L338.88 438.45L339.37 439.66L339.92 440.83L340.53 441.97L341.18 443.05L341.89 444.09L342.65 445.08L343.45 446.02L344.29 446.91L345.18 447.73L346.11 448.5L347.08 449.21L348.08 449.85L349.11 450.43L350.18 450.94L351.28 451.37L352.4 451.74L353.55 452.02L354.73 452.23L355.92 452.36L357.13 452.4L358.35 452.36L359.54 452.23L360.71 452.02L361.86 451.74L362.99 451.37L364.09 450.94L365.15 450.43L366.19 449.85L367.19 449.21L368.16 448.5L369.08 447.73L369.97 446.91L370.82 446.02L371.62 445.08L372.38 444.09L373.08 443.05L373.74 441.97L374.34 440.83L374.89 439.66L375.38 438.45L375.82 437.2L376.19 435.92L376.5 434.6L376.75 433.26L376.92 431.88L377.03 430.49L377.07 429.07L377.03 427.65L376.92 426.25L376.75 424.88L376.5 423.53L376.19 422.22L375.82 420.93L375.38 419.68L374.89 418.47L374.34 417.3L373.74 416.17L373.08 415.08L372.38 414.04L371.62 413.05L370.82 412.11L369.97 411.23L369.08 410.4L368.16 409.63L367.19 408.92L366.19 408.28L365.15 407.7L364.09 407.2L362.99 406.76L361.86 406.4L360.71 406.11L359.54 405.9L358.35 405.78L357.13 405.73L355.92 405.78L354.73 405.9Z" id="b2J995YOw3"></path><path d="M379.8 403.33C379.8 403.33 379.8 403.33 379.8 403.33C379.8 433.77 379.8 450.68 379.8 454.07C379.8 454.07 379.8 454.07 379.8 454.07C378.4 454.07 377.62 454.07 377.47 454.07C377.47 454.07 377.47 454.07 377.47 454.07C377.47 423.63 377.47 406.72 377.47 403.33C377.47 403.33 377.47 403.33 377.47 403.33C378.87 403.33 379.64 403.33 379.8 403.33Z" id="a257XBWJ8z"></path><path d="M554.41 403.29L555.58 403.47L556.74 403.73L557.88 404.06L558.99 404.45L560.07 404.92L561.13 405.44L562.16 406.03L563.16 406.67L564.13 407.37L565.06 408.13L565.96 408.95L566.82 409.81L567.64 410.73L568.42 411.69L569.16 412.69L569.86 413.75L570.5 414.84L571.11 415.97L571.66 417.14L572.16 418.35L572.61 419.59L573 420.87L573.34 422.17L573.62 423.5L573.84 424.86L574 426.24L574.1 427.64L574.13 429.07L574.1 430.49L574 431.89L573.84 433.28L573.62 434.63L573.34 435.96L573 437.27L572.61 438.54L572.16 439.78L571.66 440.99L571.11 442.16L570.5 443.29L569.86 444.39L569.16 445.44L568.42 446.45L567.64 447.41L566.82 448.32L565.96 449.19L565.06 450L564.13 450.76L563.16 451.46L562.16 452.11L561.13 452.69L560.07 453.22L558.99 453.68L557.88 454.07L556.74 454.4L555.58 454.66L554.41 454.85L553.21 454.96L552 455L550.79 454.96L549.59 454.85L548.42 454.66L547.26 454.4L546.12 454.07L545.01 453.68L543.93 453.22L542.87 452.69L541.84 452.11L540.84 451.46L539.87 450.76L538.94 450L538.04 449.19L537.18 448.32L536.36 447.41L535.58 446.45L534.84 445.44L534.14 444.39L533.5 443.29L532.89 442.16L532.34 440.99L531.84 439.78L531.39 438.54L531 437.27L530.66 435.96L530.38 434.63L530.16 433.28L530 431.89L529.9 430.49L529.87 429.07L529.9 427.64L530 426.24L530.16 424.86L530.38 423.5L530.66 422.17L531 420.87L531.39 419.59L531.84 418.35L532.34 417.14L532.89 415.97L533.5 414.84L534.14 413.75L534.84 412.69L535.58 411.69L536.36 410.73L537.18 409.81L538.04 408.95L538.94 408.13L539.87 407.37L540.84 406.67L541.84 406.03L542.87 405.44L543.93 404.92L545.01 404.45L546.12 404.06L547.26 403.73L548.42 403.47L549.59 403.29L550.79 403.17L552 403.13L553.21 403.17L554.41 403.29ZM549.59 405.9L548.42 406.11L547.27 406.4L546.15 406.76L545.05 407.2L543.98 407.7L542.95 408.28L541.94 408.92L540.98 409.63L540.05 410.4L539.16 411.23L538.31 412.11L537.51 413.05L536.76 414.04L536.05 415.08L535.39 416.17L534.79 417.3L534.24 418.47L533.75 419.68L533.31 420.93L532.94 422.22L532.63 423.53L532.39 424.88L532.21 426.25L532.1 427.65L532.07 429.07L532.1 430.49L532.21 431.88L532.39 433.26L532.63 434.6L532.94 435.92L533.31 437.2L533.75 438.45L534.24 439.66L534.79 440.83L535.39 441.97L536.05 443.05L536.76 444.09L537.51 445.08L538.31 446.02L539.16 446.91L540.05 447.73L540.98 448.5L541.94 449.21L542.95 449.85L543.98 450.43L545.05 450.94L546.15 451.37L547.27 451.74L548.42 452.02L549.59 452.23L550.79 452.36L552 452.4L553.21 452.36L554.41 452.23L555.58 452.02L556.73 451.74L557.85 451.37L558.95 450.94L560.02 450.43L561.05 449.85L562.06 449.21L563.02 448.5L563.95 447.73L564.84 446.91L565.69 446.02L566.49 445.08L567.24 444.09L567.95 443.05L568.61 441.97L569.21 440.83L569.76 439.66L570.25 438.45L570.69 437.2L571.06 435.92L571.37 434.6L571.61 433.26L571.79 431.88L571.9 430.49L571.93 429.07L571.9 427.65L571.79 426.25L571.61 424.88L571.37 423.53L571.06 422.22L570.69 420.93L570.25 419.68L569.76 418.47L569.21 417.3L568.61 416.17L567.95 415.08L567.24 414.04L566.49 413.05L565.69 412.11L564.84 411.23L563.95 410.4L563.02 409.63L562.06 408.92L561.05 408.28L560.02 407.7L558.95 407.2L557.85 406.76L556.73 406.4L555.58 406.11L554.41 405.9L553.21 405.78L552 405.73L550.79 405.78L549.59 405.9Z" id="az6EQBa2G"></path><path d="M574.67 403.33C574.67 403.33 574.67 403.33 574.67 403.33C574.67 433.77 574.67 450.68 574.67 454.07C574.67 454.07 574.67 454.07 574.67 454.07C573.27 454.07 572.49 454.07 572.33 454.07C572.33 454.07 572.33 454.07 572.33 454.07C572.33 423.63 572.33 406.72 572.33 403.33C572.33 403.33 572.33 403.33 572.33 403.33C573.73 403.33 574.51 403.33 574.67 403.33Z" id="bllfPJPp"></path><path d="M306.13 372.53C306.13 372.53 306.13 372.53 306.13 372.53C306.13 421.45 306.13 448.63 306.13 454.07C306.13 454.07 306.13 454.07 306.13 454.07C304.73 454.07 303.96 454.07 303.8 454.07C303.8 454.07 303.8 454.07 303.8 454.07C303.8 405.15 303.8 377.97 303.8 372.53C303.8 372.53 303.8 372.53 303.8 372.53C305.2 372.53 305.98 372.53 306.13 372.53Z" id="c4t6JBMTSS"></path><path d="M142.67 430.93C142.67 430.93 142.67 430.93 142.67 430.93C142.67 432.33 142.67 433.11 142.67 433.27C142.67 433.27 142.67 433.27 142.67 433.27C116.91 433.27 102.6 433.27 99.73 433.27C99.73 433.27 99.73 433.27 99.73 433.27C99.73 431.87 99.73 431.09 99.73 430.93C99.73 430.93 99.73 430.93 99.73 430.93C125.49 430.93 139.8 430.93 142.67 430.93Z" id="b1aY92HTNv"></path><path d="M183.13 389.13L183.13 385.6L185.47 385.6L185.47 389.13L183.13 389.13Z" id="a6v13zXrYk"></path><path d="M200.8 372.53C200.8 416.09 200.8 440.29 200.8 445.13C200.8 447.4 201.47 449.13 202.87 450.47C204.27 451.8 206.13 452.47 208.4 452.47C209.27 452.47 210.27 452.4 211.47 452.2C212.67 452 213.73 451.73 214.8 451.47C214.88 451.65 215.52 453.15 215.6 453.33C214.53 453.73 213.2 454.07 211.6 454.33C210 454.6 208.67 454.73 207.6 454.73C204.87 454.73 202.67 453.87 201 452.13C199.27 450.4 198.47 448.07 198.47 445.27C198.47 440.42 198.47 416.17 198.47 372.53L200.8 372.53Z" id="a8v435fzU"></path><path d="M102.4 375.47L67.87 454.87L65.33 454.87L101.13 372.6L103.67 372.6L139.47 454.87L137.07 454.87L102.4 375.47Z" id="a2sCUfE2nt"></path><path d="M332.07 410.53C332.07 410.53 332.07 410.53 332.07 410.53C332.07 411.93 332.07 412.71 332.07 412.87C332.07 412.87 332.07 412.87 332.07 412.87C306.31 412.87 292 412.87 289.13 412.87C289.13 412.87 289.13 412.87 289.13 412.87C289.13 411.47 289.13 410.69 289.13 410.53C289.13 410.53 289.13 410.53 289.13 410.53C314.89 410.53 329.2 410.53 332.07 410.53Z" id="a1DbfHCNUq"></path><path d="M169.8 453.27C168.8 453.67 167.67 454 166.4 454.4C165.07 454.73 163.6 454.93 162 454.93C159.2 454.93 156.73 454.07 154.67 452.4C152.6 450.67 151.53 448.47 151.53 445.67C151.53 442.38 151.53 425.93 151.53 396.33L145.13 396.33L145.13 394L151.53 394L151.53 372.93L153.87 372.93L153.87 394L176.93 394L176.93 396.33L153.87 396.33C153.87 425.93 153.87 442.38 153.87 445.67C154 447.93 154.93 449.67 156.53 450.87C158.13 452.07 160 452.67 162 452.67C163.33 452.67 164.53 452.53 165.73 452.27C166.87 452 167.93 451.67 168.8 451.33C169.67 451 170.4 450.67 170.87 450.33C171.4 450 171.67 449.8 171.73 449.73C171.82 449.85 172.24 450.45 173 451.53C171.53 452.42 170.47 453 169.8 453.27Z" id="d2skMXQ4gc"></path><path d="M238.74 403.29L239.92 403.47L241.07 403.73L242.21 404.06L243.32 404.45L244.41 404.92L245.46 405.44L246.49 406.03L247.49 406.67L248.46 407.37L249.39 408.13L250.29 408.95L251.15 409.81L251.98 410.73L252.76 411.69L253.49 412.69L254.19 413.75L254.84 414.84L255.44 415.97L255.99 417.14L256.49 418.35L256.94 419.59L257.34 420.87L257.67 422.17L257.96 423.5L258.18 424.86L258.34 426.24L258.43 427.64L258.47 429.07L258.43 430.49L258.34 431.89L258.18 433.28L257.96 434.63L257.67 435.96L257.34 437.27L256.94 438.54L256.49 439.78L255.99 440.99L255.44 442.16L254.84 443.29L254.19 444.39L253.49 445.44L252.76 446.45L251.98 447.41L251.15 448.32L250.29 449.19L249.39 450L248.46 450.76L247.49 451.46L246.49 452.11L245.46 452.69L244.41 453.22L243.32 453.68L242.21 454.07L241.07 454.4L239.92 454.66L238.74 454.85L237.55 454.96L236.33 455L235.12 454.96L233.93 454.85L232.75 454.66L231.59 454.4L230.46 454.07L229.35 453.68L228.26 453.22L227.2 452.69L226.17 452.11L225.17 451.46L224.21 450.76L223.27 450L222.37 449.19L221.51 448.32L220.69 447.41L219.91 446.45L219.17 445.44L218.48 444.39L217.83 443.29L217.23 442.16L216.67 440.99L216.17 439.78L215.73 438.54L215.33 437.27L214.99 435.96L214.71 434.63L214.49 433.28L214.33 431.89L214.23 430.49L214.2 429.07L214.23 427.64L214.33 426.24L214.49 424.86L214.71 423.5L214.99 422.17L215.33 420.87L215.73 419.59L216.17 418.35L216.67 417.14L217.23 415.97L217.83 414.84L218.48 413.75L219.17 412.69L219.91 411.69L220.69 410.73L221.51 409.81L222.37 408.95L223.27 408.13L224.21 407.37L225.17 406.67L226.17 406.03L227.2 405.44L228.26 404.92L229.35 404.45L230.46 404.06L231.59 403.73L232.75 403.47L233.93 403.29L235.12 403.17L236.33 403.13L237.55 403.17L238.74 403.29ZM233.93 405.9L232.75 406.11L231.6 406.4L230.48 406.76L229.38 407.2L228.31 407.7L227.28 408.28L226.28 408.92L225.31 409.63L224.38 410.4L223.49 411.23L222.65 412.11L221.85 413.05L221.09 414.04L220.38 415.08L219.73 416.17L219.12 417.3L218.57 418.47L218.08 419.68L217.65 420.93L217.28 422.22L216.97 423.53L216.72 424.88L216.54 426.25L216.44 427.65L216.4 429.07L216.44 430.49L216.54 431.88L216.72 433.26L216.97 434.6L217.28 435.92L217.65 437.2L218.08 438.45L218.57 439.66L219.12 440.83L219.73 441.97L220.38 443.05L221.09 444.09L221.85 445.08L222.65 446.02L223.49 446.91L224.38 447.73L225.31 448.5L226.28 449.21L227.28 449.85L228.31 450.43L229.38 450.94L230.48 451.37L231.6 451.74L232.75 452.02L233.93 452.23L235.12 452.36L236.33 452.4L237.55 452.36L238.74 452.23L239.91 452.02L241.06 451.74L242.19 451.37L243.29 450.94L244.35 450.43L245.39 449.85L246.39 449.21L247.36 448.5L248.28 447.73L249.17 446.91L250.02 446.02L250.82 445.08L251.58 444.09L252.28 443.05L252.94 441.97L253.54 440.83L254.09 439.66L254.58 438.45L255.02 437.2L255.39 435.92L255.7 434.6L255.95 433.26L256.12 431.88L256.23 430.49L256.27 429.07L256.23 427.65L256.12 426.25L255.95 424.88L255.7 423.53L255.39 422.22L255.02 420.93L254.58 419.68L254.09 418.47L253.54 417.3L252.94 416.17L252.28 415.08L251.58 414.04L250.82 413.05L250.02 412.11L249.17 411.23L248.28 410.4L247.36 409.63L246.39 408.92L245.39 408.28L244.35 407.7L243.29 407.2L242.19 406.76L241.06 406.4L239.91 406.11L238.74 405.9L237.55 405.78L236.33 405.73L235.12 405.78L233.93 405.9Z" id="a1ji71IpGi"></path><path d="M259 403.33C259 403.33 259 403.33 259 403.33C259 433.77 259 450.68 259 454.07C259 454.07 259 454.07 259 454.07C257.6 454.07 256.82 454.07 256.67 454.07C256.67 454.07 256.67 454.07 256.67 454.07C256.67 423.63 256.67 406.72 256.67 403.33C256.67 403.33 256.67 403.33 256.67 403.33C258.07 403.33 258.84 403.33 259 403.33Z" id="ejzksUDDD"></path><path d="M474.07 396.87L474.07 393.33L476.4 393.33L476.4 396.87L474.07 396.87Z" id="fDLidmS3R"></path><path d="M388.07 446.93C388.21 446.81 389.39 445.79 389.53 445.67C392.13 448.2 394.8 450.07 397.6 451.27C400.4 452.47 403.6 453.07 407.2 453.07C412.13 453.07 416.2 452 419.27 449.87C422.33 447.73 423.87 444.73 423.87 440.87C423.87 439.07 423.47 437.6 422.73 436.4C421.93 435.2 420.87 434.2 419.33 433.33C417.87 432.47 416 431.73 413.87 431.13C411.67 430.53 409.2 429.87 406.47 429.27C403.73 428.6 401.4 428 399.4 427.47C397.4 426.93 395.73 426.2 394.47 425.4C393.13 424.53 392.13 423.53 391.47 422.27C390.8 421 390.47 419.4 390.47 417.4C390.47 414.87 390.93 412.73 391.93 411C392.87 409.2 394.2 407.8 395.8 406.6C397.4 405.47 399.27 404.6 401.4 404.07C403.53 403.53 405.8 403.27 408.13 403.27C412.2 403.27 415.67 403.93 418.47 405.33C421.33 406.73 423.33 408.47 424.4 410.47C424.23 410.55 422.84 411.19 422.67 411.27C421.47 409.27 419.47 407.73 416.67 406.73C413.93 405.73 410.93 405.2 407.67 405.2C405.6 405.2 403.67 405.4 401.8 405.87C399.93 406.33 398.27 407 396.87 408C395.47 408.93 394.33 410.2 393.53 411.73C392.73 413.27 392.33 415.07 392.33 417.2C392.33 418.87 392.6 420.27 393.13 421.27C393.67 422.33 394.53 423.2 395.67 423.93C396.8 424.67 398.33 425.27 400.13 425.73C401.93 426.27 404.07 426.8 406.47 427.4C409.4 428.13 412.13 428.8 414.53 429.4C416.93 430.07 419 430.87 420.6 431.8C422.27 432.73 423.53 433.93 424.4 435.33C425.27 436.73 425.73 438.47 425.73 440.67C425.73 442.87 425.27 444.8 424.4 446.6C423.47 448.4 422.27 449.87 420.67 451.13C419.07 452.4 417.07 453.33 414.8 454C412.4 454.73 409.87 455.07 407.13 455.07C399.33 455.07 393 452.33 388.07 446.93Z" id="aBaJy7ucS"></path><path d="M430.33 446.93C430.48 446.81 431.65 445.79 431.8 445.67C434.4 448.2 437.07 450.07 439.87 451.27C442.67 452.47 445.87 453.07 449.47 453.07C454.4 453.07 458.47 452 461.53 449.87C464.6 447.73 466.13 444.73 466.13 440.87C466.13 439.07 465.73 437.6 465 436.4C464.2 435.2 463.13 434.2 461.6 433.33C460.13 432.47 458.27 431.73 456.13 431.13C453.93 430.53 451.47 429.87 448.73 429.27C446 428.6 443.67 428 441.67 427.47C439.67 426.93 438 426.2 436.73 425.4C435.4 424.53 434.4 423.53 433.73 422.27C433.07 421 432.73 419.4 432.73 417.4C432.73 414.87 433.2 412.73 434.2 411C435.13 409.2 436.47 407.8 438.07 406.6C439.67 405.47 441.53 404.6 443.67 404.07C445.8 403.53 448.07 403.27 450.4 403.27C454.47 403.27 457.93 403.93 460.73 405.33C463.6 406.73 465.6 408.47 466.67 410.47C466.49 410.55 465.11 411.19 464.93 411.27C463.73 409.27 461.73 407.73 458.93 406.73C456.2 405.73 453.2 405.2 449.93 405.2C447.87 405.2 445.93 405.4 444.07 405.87C442.2 406.33 440.53 407 439.13 408C437.73 408.93 436.6 410.2 435.8 411.73C435 413.27 434.6 415.07 434.6 417.2C434.6 418.87 434.87 420.27 435.4 421.27C435.93 422.33 436.8 423.2 437.93 423.93C439.07 424.67 440.6 425.27 442.4 425.73C444.2 426.27 446.33 426.8 448.73 427.4C451.67 428.13 454.4 428.8 456.8 429.4C459.2 430.07 461.27 430.87 462.87 431.8C464.53 432.73 465.8 433.93 466.67 435.33C467.6 436.73 468 438.47 468 440.67C468 442.87 467.53 444.8 466.67 446.6C465.73 448.4 464.53 449.87 462.93 451.13C461.33 452.4 459.33 453.33 457.07 454C454.73 454.73 452.2 455.07 449.4 455.07C441.6 455.07 435.27 452.33 430.33 446.93Z" id="hHIr2e8aX"></path><path d="M523.47 453.93C523.47 437.29 523.47 428.05 523.47 426.2C523.47 418.87 522.47 413.6 520.47 410.27C518.47 406.93 515.2 405.27 510.73 405.27C508.27 405.27 505.93 405.67 503.6 406.53C501.27 407.4 499.07 408.6 497.13 410.13C495.13 411.67 493.4 413.47 491.93 415.6C490.47 417.73 489.4 420 488.67 422.4C488.67 424.5 488.67 435.01 488.67 453.93L486.67 453.93L486.67 404.07L488.6 404.07C488.6 411.79 488.6 416.08 488.6 416.93C489.6 414.93 490.93 413.13 492.53 411.4C494.13 409.73 495.87 408.27 497.8 407.07C499.73 405.87 501.8 404.93 503.93 404.27C506.13 403.6 508.33 403.27 510.53 403.27C515.67 403.27 519.4 405.13 521.8 408.8C524.2 412.47 525.33 418.27 525.33 426.13C525.33 427.99 525.33 437.25 525.33 453.93L523.47 453.93Z" id="b1klgJ1bWt"></path><path d="M359.55 403.29L360.73 403.47L361.89 403.73L363.03 404.06L364.15 404.45L365.23 404.92L366.29 405.44L367.32 406.03L368.32 406.67L369.29 407.37L370.22 408.13L371.12 408.95L371.98 409.81L372.8 410.73L373.58 411.69L374.32 412.69L375.01 413.75L375.66 414.84L376.25 415.97L376.8 417.14L377.3 418.35L377.75 419.59L378.14 420.87L378.48 422.17L378.76 423.5L378.98 424.86L379.14 426.24L379.23 427.64L379.27 429.07L379.23 430.49L379.14 431.89L378.98 433.28L378.76 434.63L378.47 435.96L378.14 437.27L377.74 438.54L377.29 439.78L376.79 440.99L376.24 442.16L375.64 443.29L374.99 444.39L374.29 445.44L373.56 446.45L372.78 447.41L371.95 448.32L371.09 449.19L370.19 450L369.26 450.76L368.29 451.46L367.29 452.11L366.26 452.69L365.21 453.22L364.12 453.68L363.01 454.07L361.87 454.4L360.72 454.66L359.54 454.85L358.35 454.96L357.13 455L355.92 454.96L354.73 454.85L353.55 454.66L352.39 454.4L351.26 454.07L350.15 453.68L349.06 453.22L348 452.69L346.97 452.11L345.97 451.46L345.01 450.76L344.07 450L343.17 449.19L342.31 448.32L341.49 447.41L340.71 446.45L339.97 445.44L339.28 444.39L338.63 443.29L338.03 442.16L337.47 440.99L336.97 439.78L336.53 438.54L336.13 437.27L335.79 435.96L335.51 434.63L335.29 433.28L335.13 431.89L335.03 430.49L335 429.07L335.03 427.64L335.13 426.24L335.29 424.86L335.51 423.5L335.79 422.17L336.13 420.87L336.53 419.59L336.97 418.35L337.48 417.14L338.03 415.97L338.63 414.84L339.28 413.75L339.97 412.69L340.71 411.69L341.49 410.73L342.31 409.81L343.17 408.95L344.07 408.13L345.01 407.37L345.97 406.67L346.97 406.03L348 405.44L349.06 404.92L350.15 404.45L351.26 404.06L352.39 403.73L353.55 403.47L354.73 403.29L355.92 403.17L357.13 403.13L358.35 403.17L359.55 403.29ZM354.73 405.9L353.55 406.11L352.4 406.4L351.28 406.76L350.18 407.2L349.11 407.7L348.08 408.28L347.08 408.92L346.11 409.63L345.18 410.4L344.29 411.23L343.45 412.11L342.65 413.05L341.89 414.04L341.18 415.08L340.53 416.17L339.92 417.3L339.37 418.47L338.88 419.68L338.45 420.93L338.08 422.22L337.77 423.53L337.52 424.88L337.34 426.25L337.24 427.65L337.2 429.07L337.24 430.49L337.34 431.88L337.52 433.26L337.77 434.6L338.08 435.92L338.45 437.2L338.88 438.45L339.37 439.66L339.92 440.83L340.53 441.97L341.18 443.05L341.89 444.09L342.65 445.08L343.45 446.02L344.29 446.91L345.18 447.73L346.11 448.5L347.08 449.21L348.08 449.85L349.11 450.43L350.18 450.94L351.28 451.37L352.4 451.74L353.55 452.02L354.73 452.23L355.92 452.36L357.13 452.4L358.35 452.36L359.54 452.23L360.71 452.02L361.86 451.74L362.99 451.37L364.09 450.94L365.15 450.43L366.19 449.85L367.19 449.21L368.16 448.5L369.08 447.73L369.97 446.91L370.82 446.02L371.62 445.08L372.38 444.09L373.08 443.05L373.74 441.97L374.34 440.83L374.89 439.66L375.38 438.45L375.82 437.2L376.19 435.92L376.5 434.6L376.75 433.26L376.92 431.88L377.03 430.49L377.07 429.07L377.03 427.65L376.92 426.25L376.75 424.88L376.5 423.53L376.19 422.22L375.82 420.93L375.38 419.68L374.89 418.47L374.34 417.3L373.74 416.17L373.08 415.08L372.38 414.04L371.62 413.05L370.82 412.11L369.97 411.23L369.08 410.4L368.16 409.63L367.19 408.92L366.19 408.28L365.15 407.7L364.09 407.2L362.99 406.76L361.86 406.4L360.71 406.11L359.54 405.9L358.35 405.78L357.13 405.73L355.92 405.78L354.73 405.9Z" id="bJx0xVOHG"></path><path d="M379.8 403.33C379.8 403.33 379.8 403.33 379.8 403.33C379.8 433.77 379.8 450.68 379.8 454.07C379.8 454.07 379.8 454.07 379.8 454.07C378.4 454.07 377.62 454.07 377.47 454.07C377.47 454.07 377.47 454.07 377.47 454.07C377.47 423.63 377.47 406.72 377.47 403.33C377.47 403.33 377.47 403.33 377.47 403.33C378.87 403.33 379.64 403.33 379.8 403.33Z" id="ev5sorKUo"></path><path d="M554.41 403.29L555.58 403.47L556.74 403.73L557.88 404.06L558.99 404.45L560.07 404.92L561.13 405.44L562.16 406.03L563.16 406.67L564.13 407.37L565.06 408.13L565.96 408.95L566.82 409.81L567.64 410.73L568.42 411.69L569.16 412.69L569.86 413.75L570.5 414.84L571.11 415.97L571.66 417.14L572.16 418.35L572.61 419.59L573 420.87L573.34 422.17L573.62 423.5L573.84 424.86L574 426.24L574.1 427.64L574.13 429.07L574.1 430.49L574 431.89L573.84 433.28L573.62 434.63L573.34 435.96L573 437.27L572.61 438.54L572.16 439.78L571.66 440.99L571.11 442.16L570.5 443.29L569.86 444.39L569.16 445.44L568.42 446.45L567.64 447.41L566.82 448.32L565.96 449.19L565.06 450L564.13 450.76L563.16 451.46L562.16 452.11L561.13 452.69L560.07 453.22L558.99 453.68L557.88 454.07L556.74 454.4L555.58 454.66L554.41 454.85L553.21 454.96L552 455L550.79 454.96L549.59 454.85L548.42 454.66L547.26 454.4L546.12 454.07L545.01 453.68L543.93 453.22L542.87 452.69L541.84 452.11L540.84 451.46L539.87 450.76L538.94 450L538.04 449.19L537.18 448.32L536.36 447.41L535.58 446.45L534.84 445.44L534.14 444.39L533.5 443.29L532.89 442.16L532.34 440.99L531.84 439.78L531.39 438.54L531 437.27L530.66 435.96L530.38 434.63L530.16 433.28L530 431.89L529.9 430.49L529.87 429.07L529.9 427.64L530 426.24L530.16 424.86L530.38 423.5L530.66 422.17L531 420.87L531.39 419.59L531.84 418.35L532.34 417.14L532.89 415.97L533.5 414.84L534.14 413.75L534.84 412.69L535.58 411.69L536.36 410.73L537.18 409.81L538.04 408.95L538.94 408.13L539.87 407.37L540.84 406.67L541.84 406.03L542.87 405.44L543.93 404.92L545.01 404.45L546.12 404.06L547.26 403.73L548.42 403.47L549.59 403.29L550.79 403.17L552 403.13L553.21 403.17L554.41 403.29ZM549.59 405.9L548.42 406.11L547.27 406.4L546.15 406.76L545.05 407.2L543.98 407.7L542.95 408.28L541.94 408.92L540.98 409.63L540.05 410.4L539.16 411.23L538.31 412.11L537.51 413.05L536.76 414.04L536.05 415.08L535.39 416.17L534.79 417.3L534.24 418.47L533.75 419.68L533.31 420.93L532.94 422.22L532.63 423.53L532.39 424.88L532.21 426.25L532.1 427.65L532.07 429.07L532.1 430.49L532.21 431.88L532.39 433.26L532.63 434.6L532.94 435.92L533.31 437.2L533.75 438.45L534.24 439.66L534.79 440.83L535.39 441.97L536.05 443.05L536.76 444.09L537.51 445.08L538.31 446.02L539.16 446.91L540.05 447.73L540.98 448.5L541.94 449.21L542.95 449.85L543.98 450.43L545.05 450.94L546.15 451.37L547.27 451.74L548.42 452.02L549.59 452.23L550.79 452.36L552 452.4L553.21 452.36L554.41 452.23L555.58 452.02L556.73 451.74L557.85 451.37L558.95 450.94L560.02 450.43L561.05 449.85L562.06 449.21L563.02 448.5L563.95 447.73L564.84 446.91L565.69 446.02L566.49 445.08L567.24 444.09L567.95 443.05L568.61 441.97L569.21 440.83L569.76 439.66L570.25 438.45L570.69 437.2L571.06 435.92L571.37 434.6L571.61 433.26L571.79 431.88L571.9 430.49L571.93 429.07L571.9 427.65L571.79 426.25L571.61 424.88L571.37 423.53L571.06 422.22L570.69 420.93L570.25 419.68L569.76 418.47L569.21 417.3L568.61 416.17L567.95 415.08L567.24 414.04L566.49 413.05L565.69 412.11L564.84 411.23L563.95 410.4L563.02 409.63L562.06 408.92L561.05 408.28L560.02 407.7L558.95 407.2L557.85 406.76L556.73 406.4L555.58 406.11L554.41 405.9L553.21 405.78L552 405.73L550.79 405.78L549.59 405.9Z" id="a4CrFsvWaG"></path><path d="M574.67 403.33C574.67 403.33 574.67 403.33 574.67 403.33C574.67 433.77 574.67 450.68 574.67 454.07C574.67 454.07 574.67 454.07 574.67 454.07C573.27 454.07 572.49 454.07 572.33 454.07C572.33 454.07 572.33 454.07 572.33 454.07C572.33 423.63 572.33 406.72 572.33 403.33C572.33 403.33 572.33 403.33 572.33 403.33C573.73 403.33 574.51 403.33 574.67 403.33Z" id="a4073PIdiy"></path><path d="M306.13 372.53C306.13 372.53 306.13 372.53 306.13 372.53C306.13 421.45 306.13 448.63 306.13 454.07C306.13 454.07 306.13 454.07 306.13 454.07C304.73 454.07 303.96 454.07 303.8 454.07C303.8 454.07 303.8 454.07 303.8 454.07C303.8 405.15 303.8 377.97 303.8 372.53C303.8 372.53 303.8 372.53 303.8 372.53C305.2 372.53 305.98 372.53 306.13 372.53Z" id="a2duqxak9y"></path><path d="M142.67 430.93C142.67 430.93 142.67 430.93 142.67 430.93C142.67 432.33 142.67 433.11 142.67 433.27C142.67 433.27 142.67 433.27 142.67 433.27C116.91 433.27 102.6 433.27 99.73 433.27C99.73 433.27 99.73 433.27 99.73 433.27C99.73 431.87 99.73 431.09 99.73 430.93C99.73 430.93 99.73 430.93 99.73 430.93C125.49 430.93 139.8 430.93 142.67 430.93Z" id="ammkvNCzz"></path><path d="M376.93 371.8C376.93 371.8 376.93 371.8 376.93 371.8C376.93 373.2 376.93 373.98 376.93 374.13C376.93 374.13 376.93 374.13 376.93 374.13C324.25 374.13 294.99 374.13 289.13 374.13C289.13 374.13 289.13 374.13 289.13 374.13C289.13 372.73 289.13 371.96 289.13 371.8C289.13 371.8 289.13 371.8 289.13 371.8C341.81 371.8 371.08 371.8 376.93 371.8Z" id="e9HBhwv85R"></path><path d="M307.2 189.8L247.6 326.73L243.2 326.73L305 184.8L309.4 184.8L371.2 326.73L367 326.73L307.2 189.8Z" id="fUTryyeYG"></path><path d="M376.53 285.47C376.53 285.47 376.53 285.47 376.53 285.47C376.53 287.87 376.53 289.2 376.53 289.47C376.53 289.47 376.53 289.47 376.53 289.47C332.09 289.47 307.4 289.47 302.47 289.47C302.47 289.47 302.47 289.47 302.47 289.47C302.47 287.07 302.47 285.73 302.47 285.47C302.47 285.47 302.47 285.47 302.47 285.47C346.91 285.47 371.6 285.47 376.53 285.47Z" id="agXerxY6j"></path><path d="M307.2 189.8L247.6 326.73L243.2 326.73L305 184.8L309.4 184.8L371.2 326.73L367 326.73L307.2 189.8Z" id="drPupAtz5"></path><path d="M396.73 285.47C396.73 285.47 396.73 285.47 396.73 285.47C396.73 287.87 396.73 289.2 396.73 289.47C396.73 289.47 396.73 289.47 396.73 289.47C340.17 289.47 308.75 289.47 302.47 289.47C302.47 289.47 302.47 289.47 302.47 289.47C302.47 287.07 302.47 285.73 302.47 285.47C302.47 285.47 302.47 285.47 302.47 285.47C359.03 285.47 390.45 285.47 396.73 285.47Z" id="e27FCHYzdd"></path></defs><g><g><use xlink:href="#chVoDCKHB" opacity="1" fill="#000000" fill-opacity="1"></use><g><use xlink:href="#chVoDCKHB" opacity="1" fill-opacity="0" stroke="#000000" stroke-width="1" stroke-opacity="0"></use></g></g><g><use xlink:href="#d506yjWVXG" opacity="1" fill="#000000" fill-opacity="1"></use><g><use xlink:href="#d506yjWVXG" opacity="1" fill-opacity="0" stroke="#000000" stroke-width="1" stroke-opacity="0"></use></g></g><g><use xlink:href="#c3a2qoZ3XB" opacity="1" fill="#000000" fill-opacity="1"></use><g><use xlink:href="#c3a2qoZ3XB" opacity="1" fill-opacity="0" stroke="#000000" stroke-width="1" stroke-opacity="0"></use></g></g><g><use xlink:href="#a8hBwWoZO" opacity="1" fill="#000000" fill-opacity="1"></use><g><use xlink:href="#a8hBwWoZO" opacity="1" fill-opacity="0" stroke="#000000" stroke-width="1" stroke-opacity="0"></use></g></g><g><use xlink:href="#c1ERKfF0l" opacity="1" fill="#000000" fill-opacity="1"></use><g><use xlink:href="#c1ERKfF0l" opacity="1" fill-opacity="0" stroke="#000000" stroke-width="1" stroke-opacity="0"></use></g></g><g><use xlink:href="#c5uKhtvQu" opacity="1" fill="#000000" fill-opacity="1"></use><g><use xlink:href="#c5uKhtvQu" opacity="1" fill-opacity="0" stroke="#000000" stroke-width="1" stroke-opacity="0"></use></g></g><g><use xlink:href="#ahB594Lu" opacity="1" fill="#000000" fill-opacity="1"></use><g><use xlink:href="#ahB594Lu" opacity="1" fill-opacity="0" stroke="#000000" stroke-width="1" stroke-opacity="0"></use></g></g><g><use xlink:href="#a2awuLgsdH" opacity="1" fill="#000000" fill-opacity="1"></use><g><use xlink:href="#a2awuLgsdH" opacity="1" fill-opacity="0" stroke="#000000" stroke-width="1" stroke-opacity="0"></use></g></g><g><use xlink:href="#b8aR2mX28" opacity="1" fill="#000000" fill-opacity="1"></use><g><use xlink:href="#b8aR2mX28" opacity="1" fill-opacity="0" stroke="#000000" stroke-width="1" stroke-opacity="0"></use></g></g><g><use xlink:href="#a22dAYzOQ" opacity="1" fill="#000000" fill-opacity="1"></use><g><use xlink:href="#a22dAYzOQ" opacity="1" fill-opacity="0" stroke="#000000" stroke-width="1" stroke-opacity="0"></use></g></g><g><use xlink:href="#b2J995YOw3" opacity="1" fill="#000000" fill-opacity="1"></use><g><use xlink:href="#b2J995YOw3" opacity="1" fill-opacity="0" stroke="#000000" stroke-width="1" stroke-opacity="0"></use></g></g><g><use xlink:href="#a257XBWJ8z" opacity="1" fill="#000000" fill-opacity="1"></use><g><use xlink:href="#a257XBWJ8z" opacity="1" fill-opacity="0" stroke="#000000" stroke-width="1" stroke-opacity="0"></use></g></g><g><use xlink:href="#az6EQBa2G" opacity="1" fill="#000000" fill-opacity="1"></use><g><use xlink:href="#az6EQBa2G" opacity="1" fill-opacity="0" stroke="#000000" stroke-width="1" stroke-opacity="0"></use></g></g><g><use xlink:href="#bllfPJPp" opacity="1" fill="#000000" fill-opacity="1"></use><g><use xlink:href="#bllfPJPp" opacity="1" fill-opacity="0" stroke="#000000" stroke-width="1" stroke-opacity="0"></use></g></g><g><use xlink:href="#c4t6JBMTSS" opacity="1" fill="#000000" fill-opacity="1"></use><g><use xlink:href="#c4t6JBMTSS" opacity="1" fill-opacity="0" stroke="#000000" stroke-width="1" stroke-opacity="0"></use></g></g><g><use xlink:href="#b1aY92HTNv" opacity="1" fill="#000000" fill-opacity="1"></use><g><use xlink:href="#b1aY92HTNv" opacity="1" fill-opacity="0" stroke="#000000" stroke-width="1" stroke-opacity="0"></use></g></g><g><use xlink:href="#a6v13zXrYk" opacity="1" fill="#000000" fill-opacity="1"></use><g><use xlink:href="#a6v13zXrYk" opacity="1" fill-opacity="0" stroke="#000000" stroke-width="1" stroke-opacity="0"></use></g></g><g><use xlink:href="#a8v435fzU" opacity="1" fill="#000000" fill-opacity="1"></use><g><use xlink:href="#a8v435fzU" opacity="1" fill-opacity="0" stroke="#000000" stroke-width="1" stroke-opacity="0"></use></g></g><g><use xlink:href="#a2sCUfE2nt" opacity="1" fill="#000000" fill-opacity="1"></use><g><use xlink:href="#a2sCUfE2nt" opacity="1" fill-opacity="0" stroke="#000000" stroke-width="1" stroke-opacity="0"></use></g></g><g><use xlink:href="#a1DbfHCNUq" opacity="1" fill="#000000" fill-opacity="1"></use><g><use xlink:href="#a1DbfHCNUq" opacity="1" fill-opacity="0" stroke="#000000" stroke-width="1" stroke-opacity="0"></use></g></g><g><use xlink:href="#d2skMXQ4gc" opacity="1" fill="#000000" fill-opacity="1"></use><g><use xlink:href="#d2skMXQ4gc" opacity="1" fill-opacity="0" stroke="#000000" stroke-width="1" stroke-opacity="0"></use></g></g><g><use xlink:href="#a1ji71IpGi" opacity="1" fill="#000000" fill-opacity="1"></use><g><use xlink:href="#a1ji71IpGi" opacity="1" fill-opacity="0" stroke="#000000" stroke-width="1" stroke-opacity="0"></use></g></g><g><use xlink:href="#ejzksUDDD" opacity="1" fill="#000000" fill-opacity="1"></use><g><use xlink:href="#ejzksUDDD" opacity="1" fill-opacity="0" stroke="#000000" stroke-width="1" stroke-opacity="0"></use></g></g><g><use xlink:href="#fDLidmS3R" opacity="1" fill="#000000" fill-opacity="1"></use><g><use xlink:href="#fDLidmS3R" opacity="1" fill-opacity="0" stroke="#000000" stroke-width="1" stroke-opacity="0"></use></g></g><g><use xlink:href="#aBaJy7ucS" opacity="1" fill="#000000" fill-opacity="1"></use><g><use xlink:href="#aBaJy7ucS" opacity="1" fill-opacity="0" stroke="#000000" stroke-width="0.87" stroke-opacity="1"></use></g></g><g><use xlink:href="#hHIr2e8aX" opacity="1" fill="#000000" fill-opacity="1"></use><g><use xlink:href="#hHIr2e8aX" opacity="1" fill-opacity="0" stroke="#000000" stroke-width="0.87" stroke-opacity="1"></use></g></g><g><use xlink:href="#b1klgJ1bWt" opacity="1" fill="#000000" fill-opacity="1"></use><g><use xlink:href="#b1klgJ1bWt" opacity="1" fill-opacity="0" stroke="#000000" stroke-width="0.87" stroke-opacity="1"></use></g></g><g><use xlink:href="#bJx0xVOHG" opacity="1" fill="#000000" fill-opacity="1"></use><g><use xlink:href="#bJx0xVOHG" opacity="1" fill-opacity="0" stroke="#000000" stroke-width="1" stroke-opacity="0"></use></g></g><g><use xlink:href="#ev5sorKUo" opacity="1" fill="#000000" fill-opacity="1"></use><g><use xlink:href="#ev5sorKUo" opacity="1" fill-opacity="0" stroke="#000000" stroke-width="1" stroke-opacity="0"></use></g></g><g><use xlink:href="#a4CrFsvWaG" opacity="1" fill="#000000" fill-opacity="1"></use><g><use xlink:href="#a4CrFsvWaG" opacity="1" fill-opacity="0" stroke="#000000" stroke-width="1" stroke-opacity="0"></use></g></g><g><use xlink:href="#a4073PIdiy" opacity="1" fill="#000000" fill-opacity="1"></use><g><use xlink:href="#a4073PIdiy" opacity="1" fill-opacity="0" stroke="#000000" stroke-width="1" stroke-opacity="0"></use></g></g><g><use xlink:href="#a2duqxak9y" opacity="1" fill="#000000" fill-opacity="1"></use><g><use xlink:href="#a2duqxak9y" opacity="1" fill-opacity="0" stroke="#000000" stroke-width="1" stroke-opacity="0"></use></g></g><g><use xlink:href="#ammkvNCzz" opacity="1" fill="#000000" fill-opacity="1"></use><g><use xlink:href="#ammkvNCzz" opacity="1" fill-opacity="0" stroke="#000000" stroke-width="1" stroke-opacity="0"></use></g></g><g><use xlink:href="#e9HBhwv85R" opacity="1" fill="#000000" fill-opacity="1"></use><g><use xlink:href="#e9HBhwv85R" opacity="1" fill-opacity="0" stroke="#000000" stroke-width="1" stroke-opacity="0"></use></g></g><g><use xlink:href="#fUTryyeYG" opacity="1" fill="#07963d" fill-opacity="1"></use><g><use xlink:href="#fUTryyeYG" opacity="1" fill-opacity="0" stroke="#000000" stroke-width="1" stroke-opacity="0"></use></g></g><g><use xlink:href="#agXerxY6j" opacity="1" fill="#07963d" fill-opacity="1"></use><g><use xlink:href="#agXerxY6j" opacity="1" fill-opacity="0" stroke="#000000" stroke-width="1" stroke-opacity="0"></use></g></g><g><use xlink:href="#drPupAtz5" opacity="1" fill="#000000" fill-opacity="1"></use><g><use xlink:href="#drPupAtz5" opacity="1" fill-opacity="0" stroke="#000000" stroke-width="1" stroke-opacity="0"></use></g></g><g><use xlink:href="#e27FCHYzdd" opacity="1" fill="#07963d" fill-opacity="1"></use><g><use xlink:href="#e27FCHYzdd" opacity="1" fill-opacity="0" stroke="#000000" stroke-width="1" stroke-opacity="0"></use></g></g></g></svg>