<svg xmlns="http://www.w3.org/2000/svg" enable-background="new 0 0 177 57.7" xml:space="preserve" viewBox="0 0 32 32" height="100%" width="100%" version="1.1" y="0px" x="0px"><path id="path3" style="fill:#000;" d="m32,12.19c0-0.6267-0.09216-0.3686-1.198-0.682-1.106-0.2949-4.479-1.327-9.658-0.5529-4.313,0.6267-3.225,2.064-5.013,2.138h-0.2765c-1.769-0.07372-0.682-1.493-5.013-2.138-5.179-0.7557-8.552,0.258-9.658,0.5529-1.087,0.3133-1.18,0.05529-1.18,0.682s-0.05529,1.124,0.4792,1.124,0.5345,0,1.382,2.617c0.9953,3.133,1.272,4.018,2.249,4.737,1.18,0.8847,6.119,0.8847,7.723-0.07372,2.009-1.198,1.733-5.714,4.147-5.787h0.07372c2.414,0.07372,2.138,4.589,4.147,5.787,1.604,0.9584,6.543,0.9584,7.723,0.07372,0.9769-0.7372,1.235-1.604,2.249-4.737,0.8294-2.617,0.8294-2.617,1.382-2.617,0.4976,0,0.4423-0.4976,0.4423-1.124zm-19.09,4.608c-0.4976,1.253-0.8847,2.396-1.585,2.857-0.7372,0.4976-1.825,0.5898-3.428,0.5714-1.347-0.02-2.803,0.02-3.412-0.55-0.516-0.5-1.013-2.01-1.437-3.38-0.59-1.86-0.885-2.98-0.258-3.55,0.737-0.69,2.691-0.8,4.995-0.83,2.304-0.03686,5.345,0.6451,5.751,1.548,0.3133,0.7004-0.1659,2.193-0.6267,3.336zm16.05-0.4976c-0.4423,1.364-0.94,2.875-1.438,3.373-0.6082,0.5898-2.064,0.5345-3.41,0.5529-1.604,0.01843-2.691-0.07372-3.428-0.5714-0.7004-0.4608-1.087-1.604-1.585-2.857-0.4608-1.143-0.94-2.636-0.6267-3.318,0.4055-0.9031,3.447-1.585,5.751-1.548,2.304,0.03686,4.258,0.1474,4.995,0.8294,0.6082,0.5529,0.3318,1.677-0.258,3.539z"/></svg>
