<svg xmlns:dc="http://purl.org/dc/elements/1.1/" xmlns:cc="http://creativecommons.org/ns#" xmlns:rdf="http://www.w3.org/1999/02/22-rdf-syntax-ns#" xmlns:svg="http://www.w3.org/2000/svg" xmlns="http://www.w3.org/2000/svg" xmlns:sodipodi="http://sodipodi.sourceforge.net/DTD/sodipodi-0.dtd" xmlns:inkscape="http://www.inkscape.org/namespaces/inkscape" version="1.1" x="0px" y="0px" viewBox="0 0 100 125"><g transform="translate(0,-952.36215)"><path style="text-indent:0;text-transform:none;direction:ltr;block-progression:tb;baseline-shift:baseline;color:#000000;enable-background:accumulate;" d="m 41.311466,967.37208 a 1.0000366,0.99951188 0 0 0 -0.718704,0.46848 c -1.688702,2.46416 -2.264501,4.12548 -1.874882,5.55923 0.38962,1.43374 1.584333,2.11122 2.437346,2.71715 0.853013,0.60592 1.438812,1.07637 1.624897,2.06128 0.186085,0.98491 -0.06022,2.7487 -1.656145,5.74662 a 1.0000366,0.99951188 0 1 0 1.749889,0.93695 c 1.699788,-3.19303 2.194847,-5.36483 1.874881,-7.05835 -0.319966,-1.69351 -1.508923,-2.65106 -2.437345,-3.31055 -0.928423,-0.65949 -1.515328,-1.10586 -1.656145,-1.62404 -0.140818,-0.51819 0.03541,-1.63016 1.593649,-3.90395 a 1.0000366,0.99951188 0 0 0 -0.937441,-1.59282 z m 11.999239,4.99706 a 1.0000366,0.99951188 0 0 0 -0.718704,0.46848 c -1.688702,2.46416 -2.2645,4.12548 -1.874881,5.55923 0.389619,1.43374 1.584332,2.11122 2.437345,2.71715 0.853013,0.60592 1.438812,1.07637 1.624897,2.06128 0.186086,0.98491 -0.06022,2.7487 -1.656145,5.74662 a 1.0000366,0.99951188 0 1 0 1.749889,0.93695 c 1.699789,-3.19303 2.194847,-5.36483 1.874882,-7.05835 -0.319966,-1.69351 -1.508924,-2.65106 -2.437346,-3.31055 -0.928422,-0.65949 -1.515328,-1.10586 -1.656145,-1.62404 -0.140817,-0.51819 0.03541,-1.63016 1.593649,-3.90395 a 1.0000366,0.99951188 0 0 0 -0.937441,-1.59282 z M 25.812448,995.38685 A 1.0000366,0.99951188 0 0 0 25,996.44872 c 0.944016,15.86008 5.04817,31.51028 10.124358,40.41378 a 1.0000366,0.99951188 0 0 0 0.874945,0.4997 l 23.998479,0 a 1.0000366,0.99951188 0 0 0 0.874944,-0.4997 c 1.071062,-1.8787 2.098348,-4.0783 3.062306,-6.4962 l 6.062116,0 c 2.752528,0 4.999683,-2.246 4.999683,-4.997 l 0,-18.989 c 0,-2.5474 -1.935369,-4.6666 -4.405971,-4.9657 0.165395,-1.64696 0.307479,-3.30688 0.406224,-4.96588 a 1.0000366,0.99951188 0 0 0 -0.999936,-1.06187 l -43.997212,0 a 1.0000366,0.99951188 0 0 0 -0.09374,0 1.0000366,0.99951188 0 0 0 -0.09374,0 z m 1.312417,1.99882 41.747354,0 c -1.031636,14.96993 -4.939199,29.66343 -9.530646,37.97773 l -22.686062,0 c -4.591447,-8.3143 -8.499009,-23.0078 -9.530646,-37.97773 z m 43.247259,6.02773 c 1.498793,0.1779 2.624834,1.4143 2.624834,2.9669 l 0,18.989 c 0,1.6782 -1.32062,2.9982 -2.99981,2.9982 l -5.312163,0 c 2.573986,-7.051 4.618835,-15.7915 5.687139,-24.9541 z" fill="#000000" fill-opacity="1" stroke="none" marker="none" visibility="visible" display="inline" overflow="visible"/></g></svg>
