<?xml version="1.0" encoding="UTF-8" standalone="no"?>
<!DOCTYPE svg PUBLIC "-//W3C//DTD SVG 1.1//EN" "http://www.w3.org/Graphics/SVG/1.1/DTD/svg11.dtd">
<svg version="1.1" xmlns="http://www.w3.org/2000/svg" xmlns:xlink="http://www.w3.org/1999/xlink" preserveAspectRatio="xMidYMid meet" viewBox="242.19999999999996 183.8 157.5333333333334 145.93333333333334" width="153.53" height="141.93"><defs><path d="M307.2 189.8L247.6 326.73L243.2 326.73L305 184.8L309.4 184.8L371.2 326.73L367 326.73L307.2 189.8Z" id="fUTryyeYG"></path><path d="M376.53 285.47C376.53 285.47 376.53 285.47 376.53 285.47C376.53 287.87 376.53 289.2 376.53 289.47C376.53 289.47 376.53 289.47 376.53 289.47C332.09 289.47 307.4 289.47 302.47 289.47C302.47 289.47 302.47 289.47 302.47 289.47C302.47 287.07 302.47 285.73 302.47 285.47C302.47 285.47 302.47 285.47 302.47 285.47C346.91 285.47 371.6 285.47 376.53 285.47Z" id="agXerxY6j"></path><path d="M307.2 189.8L247.6 326.73L243.2 326.73L305 184.8L309.4 184.8L371.2 326.73L367 326.73L307.2 189.8Z" id="drPupAtz5"></path><path d="M396.73 285.47C396.73 285.47 396.73 285.47 396.73 285.47C396.73 287.87 396.73 289.2 396.73 289.47C396.73 289.47 396.73 289.47 396.73 289.47C340.17 289.47 308.75 289.47 302.47 289.47C302.47 289.47 302.47 289.47 302.47 289.47C302.47 287.07 302.47 285.73 302.47 285.47C302.47 285.47 302.47 285.47 302.47 285.47C359.03 285.47 390.45 285.47 396.73 285.47Z" id="e27FCHYzdd"></path></defs><g><g><use xlink:href="#fUTryyeYG" opacity="1" fill="#07963d" fill-opacity="1"></use><g><use xlink:href="#fUTryyeYG" opacity="1" fill-opacity="0" stroke="#000000" stroke-width="1" stroke-opacity="0"></use></g></g><g><use xlink:href="#agXerxY6j" opacity="1" fill="#07963d" fill-opacity="1"></use><g><use xlink:href="#agXerxY6j" opacity="1" fill-opacity="0" stroke="#000000" stroke-width="1" stroke-opacity="0"></use></g></g><g><use xlink:href="#drPupAtz5" opacity="1" fill="#000000" fill-opacity="1"></use><g><use xlink:href="#drPupAtz5" opacity="1" fill-opacity="0" stroke="#000000" stroke-width="1" stroke-opacity="0"></use></g></g><g><use xlink:href="#e27FCHYzdd" opacity="1" fill="#07963d" fill-opacity="1"></use><g><use xlink:href="#e27FCHYzdd" opacity="1" fill-opacity="0" stroke="#000000" stroke-width="1" stroke-opacity="0"></use></g></g></g></svg>