<svg xmlns:dc="http://purl.org/dc/elements/1.1/" xmlns:cc="http://creativecommons.org/ns#" xmlns:rdf="http://www.w3.org/1999/02/22-rdf-syntax-ns#" xmlns:svg="http://www.w3.org/2000/svg" xmlns="http://www.w3.org/2000/svg" xmlns:sodipodi="http://sodipodi.sourceforge.net/DTD/sodipodi-0.dtd" xmlns:inkscape="http://www.inkscape.org/namespaces/inkscape" version="1.1" x="0px" y="0px" viewBox="0 0 100 125"><g transform="translate(0,-952.36218)"><path d="m 50.000306,962.36216 c -9.4006,0 -16.9997,7.5993 -16.9997,17 l 0,24.00004 c 0,9.4007 7.5991,17 16.9997,17 9.4005,0 16.9997,-7.5993 16.9997,-17 l 0,-24.00004 c 0,-9.4007 -7.5992,-17 -16.9997,-17 z m 0,2 c 8.3271,0 14.9997,6.6727 14.9997,15 l 0,24.00004 c 0,8.3273 -6.6726,15 -14.9997,15 -8.3272,0 -14.9998,-6.6727 -14.9998,-15 l 0,-24.00004 c 0,-8.3273 6.6726,-15 14.9998,-15 z m -25.124599,26.96875 c -0.4912,0.0616 -0.8943,0.53655 -0.875,1.03125 l 0,11.00004 c 0,13.871 11.070199,25.4376 24.999599,25.9687 l 0,11.0313 -12.9998,0 c -0.5523,0 -1,0.4477 -1,1 0,0.5523 0.4477,1 1,1 l 27.9995,0 c 0.5523,0 1,-0.4477 1,-1 0,-0.5523 -0.4478,-1.008 -1,-1 l -12.9997,0 0,-11.0313 c 13.9294,-0.5311 24.9995,-12.0977 24.9995,-25.9687 l 0,-11.00004 c 0.01,-0.52903 -0.4709,-1.01644 -1,-1.01644 -0.529,0 -1.0085,0.48741 -0.9999,1.01644 l 0,11.00004 c 0,13.1127 -10.6958,24 -23.9996,24 -13.3038,0 -23.9996,-10.8873 -23.9996,-24 l 0,-11.00004 c 0.023,-0.57824 -0.5509,-1.10397 -1.124999,-1.03125 z" style="text-indent:0;text-transform:none;direction:ltr;block-progression:tb;baseline-shift:baseline;color:#000000;enable-background:accumulate;" fill="#000000" fill-opacity="1" stroke="none" marker="none" visibility="visible" display="inline" overflow="visible"/></g></svg>
