<svg xmlns="http://www.w3.org/2000/svg" enable-background="new 0 0 69.4 110.4" xml:space="preserve" viewBox="0 0 32 32" height="100%" width="100%" version="1.1" y="0px" x="0px"><g id="g3" style="fill:#fff;" transform="matrix(0.22644928,0,0,0.22644928,8.1533903,3.4999997)"><path id="path5" style="fill:#fff;" d="m27.9,16.2c-10.1,9.6,0.7,16.6,0.7,16.6-6.5-9.4,4.6-13.5,4.6-13.5s7.1-2.4,4.8-11.1c-2.1-7.7-12.2-8.2-12.2-8.2,2.8,2.4,12.2,6.6,2.1,16.2z"/><path id="path7" style="fill:#fff;" d="M60.4,53h-7.6v-8.6c0-3.5-2.9-6.4-6.5-6.4h-39.8c-3.6,0-6.5,2.9-6.5,6.4v59.6c0,3.5,2.9,6.4,6.5,6.4h39.8c3.6,0,6.5-2.8,6.5-6.4v-12.8h7.5c7,0,9-7,9-10.2v-19.2c0.1-7-5.8-8.8-8.9-8.8zm-5.4,30h-2.2v-20.4h2.2c5.1,0.1,5.6,1.7,5.6,5.6v8.1c0,6.1-2.2,6.7-5.6,6.7z"/></g></svg>
